<?xml version="1.0" encoding="utf-8"?>
<!-- Generator: Adobe Illustrator 14.0.0, SVG Export Plug-In . SVG Version: 6.00 Build 43363)  -->
<!DOCTYPE svg PUBLIC "-//W3C//DTD SVG 1.1//EN" "http://www.w3.org/Graphics/SVG/1.1/DTD/svg11.dtd">
<svg version="1.1" id="Layer_1" xmlns="http://www.w3.org/2000/svg" xmlns:xlink="http://www.w3.org/1999/xlink" x="0px" y="0px"
	 width="87.874px" height="80.039px" viewBox="0 0 87.874 80.039" enable-background="new 0 0 87.874 80.039" xml:space="preserve">
<g id="breadboard">
	<g id="icon">
		<g transform="translate(0,0)">
			<g id="background">
				<rect x="0" y="0" fill="#EEEEEE" width="87.874" height="80.039"/>
			</g>
			<g id="esp-12_pads" transform="translate(0.737, 0)">
				<g transform="translate(20.523,0)">
					<g>
						<rect x="-2" y="22.435" fill="#AAAAAA" width="3" height="3.316"/>
						<rect x="-2" y="28.104" fill="#AAAAAA" width="3" height="3.316"/>
						<rect x="-2" y="33.773" fill="#AAAAAA" width="3" height="3.316"/>
						<rect x="-2" y="39.443" fill="#AAAAAA" width="3" height="3.317"/>
						<rect x="-2" y="45.112" fill="#AAAAAA" width="3" height="3.317"/>
						<rect x="-2" y="50.78" fill="#AAAAAA" width="3" height="3.317"/>
						<rect x="-2" y="56.449" fill="#AAAAAA" width="3" height="3.316"/>
						<rect x="-2" y="62.118" fill="#AAAAAA" width="3" height="3.317"/>
					</g>
					<g>
						<rect x="44.354" y="22.435" fill="#AAAAAA" width="3" height="3.316"/>
						<rect x="44.354" y="28.104" fill="#AAAAAA" width="3" height="3.316"/>
						<rect x="44.354" y="33.773" fill="#AAAAAA" width="3" height="3.316"/>
						<rect x="44.354" y="39.443" fill="#AAAAAA" width="3" height="3.317"/>
						<rect x="44.354" y="45.112" fill="#AAAAAA" width="3" height="3.317"/>
						<rect x="44.354" y="50.78" fill="#AAAAAA" width="3" height="3.317"/>
						<rect x="44.354" y="56.449" fill="#AAAAAA" width="3" height="3.316"/>
						<rect x="44.354" y="62.118" fill="#AAAAAA" width="3" height="3.317"/>
					</g>
				</g>
			</g>
			<g id="esp-12" transform="translate(0.737, 0)">
				<g transform="translate(20.523,0)">
					<g>
						<path d="M45.351,23.244V0H0v23.243c0.47,0,0.852,0.381,0.852,0.852c0,0.47-0.382,0.85-0.852,0.85v3.968
							c0.47,0,0.852,0.381,0.852,0.852c0,0.47-0.382,0.85-0.852,0.85v3.968c0.47,0,0.852,0.381,0.852,0.852
							c0,0.47-0.382,0.85-0.852,0.85v3.968c0.47,0,0.852,0.381,0.852,0.852c0,0.47-0.382,0.85-0.852,0.85v3.968
							c0.47,0,0.852,0.382,0.852,0.851c0,0.471-0.382,0.847-0.852,0.847v3.968c0.47,0,0.852,0.383,0.852,0.852S0.47,53.289,0,53.289
							v3.968c0.47,0,0.852,0.382,0.852,0.851c0,0.47-0.382,0.851-0.852,0.851v3.97c0.47,0,0.852,0.381,0.852,0.85
							S0.47,64.628,0,64.628v3.402h7.683c-0.009-0.048-0.028-0.091-0.028-0.142c0-0.471,0.381-0.852,0.851-0.852
							c0.471,0,0.852,0.381,0.852,0.852c0,0.051-0.021,0.094-0.029,0.142h4.024c-0.009-0.048-0.028-0.091-0.028-0.142
							c0-0.471,0.381-0.852,0.85-0.852c0.471,0,0.853,0.381,0.853,0.852c0,0.051-0.021,0.094-0.029,0.142h4.024
							c-0.009-0.048-0.028-0.091-0.028-0.142c0-0.471,0.381-0.852,0.85-0.852c0.47,0,0.853,0.381,0.853,0.852
							c0,0.051-0.021,0.094-0.029,0.142h4.025c-0.01-0.048-0.029-0.091-0.029-0.142c0-0.471,0.381-0.852,0.85-0.852
							c0.471,0,0.853,0.381,0.853,0.852c0,0.051-0.021,0.094-0.029,0.142h4.025c-0.01-0.048-0.029-0.091-0.029-0.142
							c0-0.471,0.381-0.852,0.85-0.852c0.471,0,0.853,0.381,0.853,0.852c0,0.051-0.021,0.094-0.029,0.142h4.025
							c-0.009-0.048-0.029-0.091-0.029-0.142c0-0.471,0.381-0.852,0.851-0.852c0.472,0,0.853,0.381,0.853,0.852
							c0,0.051-0.021,0.094-0.029,0.142h7.679v-3.404c-0.468-0.002-0.846-0.381-0.846-0.851c0-0.469,0.379-0.846,0.846-0.85v-3.971
							c-0.468-0.002-0.846-0.381-0.846-0.85s0.379-0.849,0.846-0.852v-3.97c-0.468-0.002-0.846-0.381-0.846-0.851
							s0.379-0.848,0.846-0.851v-3.97c-0.468-0.002-0.846-0.381-0.846-0.85c0-0.471,0.379-0.849,0.846-0.852v-3.97
							c-0.468-0.002-0.846-0.381-0.846-0.85c0-0.47,0.379-0.848,0.846-0.851v-3.97c-0.468-0.002-0.846-0.381-0.846-0.85
							c0-0.469,0.379-0.848,0.846-0.851V30.6c-0.468-0.002-0.846-0.381-0.846-0.851c0-0.468,0.379-0.847,0.846-0.85v-3.97
							c-0.468-0.002-0.846-0.381-0.846-0.851C44.499,23.617,44.882,23.246,45.351,23.244z M2.835,64.628
							c-0.47,0-0.851-0.381-0.851-0.851c0-0.471,0.381-0.85,0.851-0.85s0.851,0.381,0.851,0.85S3.305,64.628,2.835,64.628z
							 M2.835,58.958c-0.47,0-0.851-0.381-0.851-0.851c0-0.471,0.381-0.852,0.851-0.852s0.851,0.383,0.851,0.852
							S3.305,58.958,2.835,58.958z M2.835,53.289c-0.47,0-0.851-0.381-0.851-0.852c0-0.469,0.381-0.851,0.851-0.851
							s0.851,0.382,0.851,0.851C3.686,52.907,3.305,53.289,2.835,53.289z M2.835,47.62c-0.47,0-0.851-0.381-0.851-0.851
							c0-0.472,0.381-0.852,0.851-0.852s0.851,0.381,0.851,0.852S3.305,47.62,2.835,47.62z M2.835,41.951
							c-0.47,0-0.851-0.381-0.851-0.85c0-0.471,0.381-0.852,0.851-0.852s0.851,0.381,0.851,0.852
							C3.686,41.571,3.305,41.951,2.835,41.951z M2.835,36.282c-0.47,0-0.851-0.381-0.851-0.85c0-0.47,0.381-0.852,0.851-0.852
							s0.851,0.381,0.851,0.852C3.686,35.902,3.305,36.282,2.835,36.282z M2.835,30.613c-0.47,0-0.851-0.381-0.851-0.85
							c0-0.47,0.381-0.852,0.851-0.852s0.851,0.381,0.851,0.852C3.686,30.233,3.305,30.613,2.835,30.613z M2.835,24.944
							c-0.47,0-0.851-0.381-0.851-0.85c0-0.47,0.381-0.852,0.851-0.852s0.851,0.381,0.851,0.852
							C3.686,24.564,3.305,24.944,2.835,24.944z M42.52,64.627c-0.471,0-0.851-0.381-0.851-0.852c0-0.469,0.381-0.852,0.851-0.852
							s0.852,0.383,0.852,0.852C43.371,64.246,42.989,64.627,42.52,64.627z M42.52,58.958c-0.471,0-0.851-0.381-0.851-0.851
							c0-0.471,0.381-0.853,0.851-0.853s0.852,0.382,0.852,0.853C43.371,58.577,42.989,58.958,42.52,58.958z M42.52,53.289
							c-0.471,0-0.851-0.381-0.851-0.852c0-0.469,0.381-0.851,0.851-0.851s0.852,0.382,0.852,0.851
							C43.371,52.907,42.989,53.289,42.52,53.289z M42.52,47.62c-0.471,0-0.851-0.381-0.851-0.851c0-0.472,0.381-0.852,0.851-0.852
							s0.852,0.381,0.852,0.852C43.37,47.238,42.989,47.62,42.52,47.62z M42.52,41.951c-0.471,0-0.851-0.381-0.851-0.851
							c0-0.471,0.381-0.851,0.851-0.851s0.852,0.381,0.852,0.851C43.37,41.569,42.989,41.951,42.52,41.951z M42.52,36.282
							c-0.471,0-0.851-0.381-0.851-0.851c0-0.471,0.381-0.851,0.851-0.851s0.852,0.381,0.852,0.851
							C43.371,35.901,42.989,36.282,42.52,36.282z M42.52,30.613c-0.471,0-0.851-0.381-0.851-0.85c0-0.471,0.381-0.852,0.851-0.852
							s0.852,0.381,0.852,0.852C43.37,30.232,42.989,30.613,42.52,30.613z M42.52,24.944c-0.471,0-0.851-0.381-0.851-0.85
							c0-0.47,0.381-0.852,0.851-0.852s0.852,0.381,0.852,0.852C43.37,24.564,42.989,24.944,42.52,24.944z"/>
					</g>
					<g>
						<g>
							<path fill="#9A916C" d="M0,22.435v0.808c0.47,0,0.852,0.381,0.852,0.852c0,0.47-0.382,0.85-0.852,0.85v0.808h4.479v-3.316H0
								V22.435z M2.835,24.944c-0.47,0-0.851-0.381-0.851-0.85c0-0.47,0.381-0.852,0.851-0.852s0.851,0.381,0.851,0.852
								C3.686,24.564,3.305,24.944,2.835,24.944z"/>
							<path fill="#9A916C" d="M0,28.104v0.808c0.47,0,0.852,0.381,0.852,0.852c0,0.47-0.382,0.85-0.852,0.85v0.808h4.479v-3.316H0
								V28.104z M2.835,30.613c-0.47,0-0.851-0.381-0.851-0.85c0-0.47,0.381-0.852,0.851-0.852s0.851,0.381,0.851,0.852
								C3.686,30.233,3.305,30.613,2.835,30.613z"/>
							<path fill="#9A916C" d="M0,33.773v0.808c0.47,0,0.852,0.381,0.852,0.852c0,0.47-0.382,0.85-0.852,0.85v0.808h4.479v-3.316H0
								V33.773z M2.835,36.282c-0.47,0-0.851-0.381-0.851-0.85c0-0.47,0.381-0.852,0.851-0.852s0.851,0.381,0.851,0.852
								C3.686,35.902,3.305,36.282,2.835,36.282z"/>
							<path fill="#9A916C" d="M0,39.443v0.808c0.47,0,0.852,0.381,0.852,0.852c0,0.47-0.382,0.85-0.852,0.85v0.809h4.479v-3.317H0
								V39.443z M2.835,41.951c-0.47,0-0.851-0.381-0.851-0.85c0-0.471,0.381-0.852,0.851-0.852s0.851,0.381,0.851,0.852
								C3.686,41.571,3.305,41.951,2.835,41.951z"/>
							<path fill="#9A916C" d="M0,45.112v0.808c0.47,0,0.852,0.383,0.852,0.852c0,0.47-0.382,0.851-0.852,0.851v0.81h4.479v-3.317H0
								V45.112z M2.835,47.62c-0.47,0-0.851-0.381-0.851-0.851c0-0.472,0.381-0.852,0.851-0.852s0.851,0.381,0.851,0.852
								S3.305,47.62,2.835,47.62z"/>
							<path fill="#9A916C" d="M0,50.78v0.808c0.47,0,0.852,0.383,0.852,0.852S0.47,53.289,0,53.289v0.809h4.479V50.78H0z
								 M2.835,53.289c-0.47,0-0.851-0.381-0.851-0.852c0-0.469,0.381-0.851,0.851-0.851s0.851,0.382,0.851,0.851
								C3.686,52.907,3.305,53.289,2.835,53.289z"/>
							<path fill="#9A916C" d="M0,56.449v0.808c0.47,0,0.852,0.382,0.852,0.851c0,0.47-0.382,0.851-0.852,0.851v0.81h4.479V56.45
								L0,56.449L0,56.449z M2.835,58.958c-0.47,0-0.851-0.381-0.851-0.851c0-0.471,0.381-0.852,0.851-0.852
								s0.851,0.383,0.851,0.852S3.305,58.958,2.835,58.958z"/>
							<path fill="#9A916C" d="M0,62.118v0.81c0.47,0,0.852,0.381,0.852,0.85S0.47,64.628,0,64.628v0.81h4.479V62.12L0,62.118
								L0,62.118z M2.835,64.628c-0.47,0-0.851-0.381-0.851-0.851c0-0.471,0.381-0.85,0.851-0.85s0.851,0.381,0.851,0.85
								S3.305,64.628,2.835,64.628z"/>
						</g>
						<g>
							<path fill="#9A916C" d="M6.846,66.387v1.645h0.838c-0.009-0.049-0.028-0.092-0.028-0.143c0-0.471,0.381-0.852,0.851-0.852
								c0.471,0,0.852,0.381,0.852,0.852c0,0.051-0.021,0.094-0.029,0.143h0.837v-1.645H6.846z"/>
							<path fill="#9A916C" d="M12.516,66.387v1.645h0.837c-0.009-0.049-0.028-0.092-0.028-0.143c0-0.471,0.381-0.852,0.85-0.852
								c0.471,0,0.853,0.381,0.853,0.852c0,0.051-0.021,0.094-0.029,0.143h0.837v-1.645H12.516z"/>
							<path fill="#9A916C" d="M18.184,66.387v1.645h0.837c-0.009-0.049-0.028-0.092-0.028-0.143c0-0.471,0.381-0.852,0.85-0.852
								c0.47,0,0.853,0.381,0.853,0.852c0,0.051-0.021,0.094-0.029,0.143H21.5v-1.645H18.184z"/>
							<path fill="#9A916C" d="M23.853,66.387v1.645h0.838c-0.009-0.049-0.029-0.092-0.029-0.143c0-0.471,0.381-0.852,0.85-0.852
								c0.471,0,0.853,0.381,0.853,0.852c0,0.051-0.021,0.094-0.029,0.143h0.837v-1.645H23.853z"/>
							<path fill="#9A916C" d="M29.521,66.387v1.645h0.838c-0.009-0.049-0.029-0.092-0.029-0.143c0-0.471,0.381-0.852,0.85-0.852
								c0.471,0,0.853,0.381,0.853,0.852c0,0.051-0.021,0.094-0.029,0.143h0.837v-1.645H29.521z"/>
							<path fill="#9A916C" d="M35.19,66.387v1.645h0.837c-0.009-0.049-0.029-0.092-0.029-0.143c0-0.471,0.381-0.852,0.852-0.852
								s0.852,0.381,0.852,0.852c0,0.051-0.021,0.094-0.029,0.143h0.837v-1.645H35.19z"/>
						</g>
						<g>
							<path fill="#9A916C" d="M44.503,63.775c0-0.469,0.381-0.852,0.853-0.852v-0.808h-4.479v3.317h4.479v-0.81
								C44.884,64.627,44.503,64.246,44.503,63.775z M42.52,64.627c-0.471,0-0.851-0.381-0.851-0.852
								c0-0.469,0.381-0.852,0.851-0.852s0.852,0.383,0.852,0.852C43.371,64.246,42.989,64.627,42.52,64.627z"/>
							<path fill="#9A916C" d="M44.503,58.107c0-0.471,0.381-0.853,0.853-0.853v-0.808h-4.479v3.316h4.479v-0.809
								C44.884,58.958,44.503,58.577,44.503,58.107z M42.52,58.958c-0.471,0-0.851-0.381-0.851-0.851
								c0-0.471,0.381-0.853,0.851-0.853s0.852,0.382,0.852,0.853C43.371,58.577,42.989,58.958,42.52,58.958z"/>
							<path fill="#9A916C" d="M44.503,52.437c0-0.469,0.381-0.851,0.853-0.851V50.78h-4.479v3.317h4.479v-0.81
								C44.884,53.289,44.503,52.908,44.503,52.437z M42.52,53.289c-0.471,0-0.851-0.381-0.851-0.852
								c0-0.469,0.381-0.851,0.851-0.851s0.852,0.382,0.852,0.851C43.371,52.907,42.989,53.289,42.52,53.289z"/>
							<path fill="#9A916C" d="M44.503,46.77c0-0.472,0.381-0.852,0.853-0.852v-0.809h-4.479v3.318h4.479V47.62
								C44.884,47.62,44.503,47.239,44.503,46.77z M42.52,47.62c-0.471,0-0.851-0.381-0.851-0.851c0-0.472,0.381-0.852,0.851-0.852
								s0.852,0.381,0.852,0.852C43.37,47.238,42.989,47.62,42.52,47.62z"/>
							<path fill="#9A916C" d="M44.503,41.1c0-0.471,0.381-0.851,0.853-0.851v-0.808h-4.479v3.316h4.479v-0.808
								C44.884,41.951,44.503,41.57,44.503,41.1z M42.52,41.951c-0.471,0-0.851-0.381-0.851-0.851c0-0.471,0.381-0.851,0.851-0.851
								s0.852,0.381,0.852,0.851C43.37,41.569,42.989,41.951,42.52,41.951z"/>
							<path fill="#9A916C" d="M44.503,35.431c0-0.471,0.381-0.851,0.853-0.851v-0.808h-4.479v3.316h4.479V36.28
								C44.884,36.282,44.503,35.901,44.503,35.431z M42.52,36.282c-0.471,0-0.851-0.381-0.851-0.851
								c0-0.471,0.381-0.851,0.851-0.851s0.852,0.381,0.852,0.851C43.371,35.901,42.989,36.282,42.52,36.282z"/>
							<path fill="#9A916C" d="M44.503,29.763c0-0.471,0.381-0.852,0.853-0.852v-0.808h-4.479v3.316h4.479v-0.808
								C44.884,30.613,44.503,30.232,44.503,29.763z M42.52,30.613c-0.471,0-0.851-0.381-0.851-0.85
								c0-0.471,0.381-0.852,0.851-0.852s0.852,0.381,0.852,0.852C43.37,30.232,42.989,30.613,42.52,30.613z"/>
							<path fill="#9A916C" d="M44.503,24.094c0-0.471,0.381-0.852,0.853-0.852v-0.808h-4.479v3.316h4.479v-0.808
								C44.884,24.944,44.503,24.563,44.503,24.094z M42.52,24.944c-0.471,0-0.851-0.381-0.851-0.85c0-0.47,0.381-0.852,0.851-0.852
								s0.852,0.381,0.852,0.852C43.37,24.564,42.989,24.944,42.52,24.944z"/>
						</g>
					</g>
					<g>
						<polygon fill="#9A916C" points="43.301,15.289 42.081,15.289 42.081,3.269 36.961,3.269 36.961,10.969 28.617,10.969 
							28.617,3.269 23.357,3.269 23.357,10.969 15.077,10.969 15.077,3.269 9.961,3.269 9.961,15.286 8.741,15.286 8.741,3.269 
							3.697,3.269 3.697,15.289 2.049,15.289 2.049,2.049 16.297,2.049 16.297,9.749 22.137,9.749 22.137,2.049 29.837,2.049 
							29.837,9.749 35.741,9.749 35.741,2.049 43.301,2.049 						"/>
					</g>
					<g>
						<g>
							<polygon fill="#FFFFFF" points="37.079,19.868 37.079,16.967 40.239,16.967 40.239,16.75 36.844,16.75 36.844,20.085 
								40.239,20.085 40.239,19.868 							"/>
							<polygon fill="#FFFFFF" points="41.036,16.75 41.036,16.967 44.196,16.967 44.196,19.868 41.036,19.868 41.036,20.085 
								44.432,20.085 44.432,16.75 							"/>
						</g>
						<rect x="37.312" y="17.217" fill="#9A916C" width="2.399" height="2.399"/>
						<rect x="41.564" y="17.217" fill="#9A916C" width="2.398" height="2.399"/>
						<path fill="#CDCCCC" d="M43.07,18.418c0-0.312,0.254-0.566,0.565-0.566v-0.434h-6v0.434c0.313,0,0.567,0.254,0.567,0.566
							c0,0.313-0.254,0.567-0.567,0.567v0.433h6v-0.433C43.324,18.985,43.07,18.731,43.07,18.418z"/>
						<rect x="38.637" y="17.418" fill="#3D55A5" width="4" height="2"/>
					</g>
					<g opacity="0.5">
						<g>
							<circle fill="#333333" stroke="#9A916C" stroke-width="0.2" stroke-linecap="round" cx="43.7" cy="60.9" r="0.55"/>
							<circle fill="#333333" stroke="#9A916C" stroke-width="0.2" stroke-linecap="round" cx="43.7" cy="55.3" r="0.55"/>
							<circle fill="#333333" stroke="#9A916C" stroke-width="0.2" stroke-linecap="round" cx="43.7" cy="49.6" r="0.55"/>
							<circle fill="#333333" stroke="#9A916C" stroke-width="0.2" stroke-linecap="round" cx="43.7" cy="43.9" r="0.55"/>
							<circle fill="#333333" stroke="#9A916C" stroke-width="0.2" stroke-linecap="round" cx="43.7" cy="38.3" r="0.55"/>
							<circle fill="#333333" stroke="#9A916C" stroke-width="0.2" stroke-linecap="round" cx="43.7" cy="32.6" r="0.55"/>
							<circle fill="#333333" stroke="#9A916C" stroke-width="0.2" stroke-linecap="round" cx="43.7" cy="26.9" r="0.55"/>
							<circle fill="#333333" stroke="#9A916C" stroke-width="0.2" stroke-linecap="round" cx="43.7" cy="21.2" r="0.55"/>
						</g>
						<g>
							<circle fill="#333333" stroke="#9A916C" stroke-width="0.2" stroke-linecap="round" cx="1.7" cy="60.9" r="0.55"/>
							<circle fill="#333333" stroke="#9A916C" stroke-width="0.2" stroke-linecap="round" cx="1.7" cy="55.3" r="0.55"/>
							<circle fill="#333333" stroke="#9A916C" stroke-width="0.2" stroke-linecap="round" cx="1.601" cy="49.6" r="0.55"/>
							<circle fill="#333333" stroke="#9A916C" stroke-width="0.2" stroke-linecap="round" cx="1.7" cy="43.9" r="0.55"/>
							<circle fill="#333333" stroke="#9A916C" stroke-width="0.2" stroke-linecap="round" cx="1.7" cy="38.3" r="0.55"/>
							<circle fill="#333333" stroke="#9A916C" stroke-width="0.2" stroke-linecap="round" cx="1.7" cy="32.6" r="0.55"/>
							<circle fill="#333333" stroke="#9A916C" stroke-width="0.2" stroke-linecap="round" cx="1.601" cy="26.9" r="0.55"/>
						</g>
						<g>
							<circle fill="#333333" stroke="#9A916C" stroke-width="0.2" stroke-linecap="round" cx="1.65" cy="18.15" r="0.55"/>
							<circle fill="#333333" stroke="#9A916C" stroke-width="0.2" stroke-linecap="round" cx="3.351" cy="18.15" r="0.55"/>
							<circle fill="#333333" stroke="#9A916C" stroke-width="0.2" stroke-linecap="round" cx="5.05" cy="18.15" r="0.55"/>
							<circle fill="#333333" stroke="#9A916C" stroke-width="0.2" stroke-linecap="round" cx="6.75" cy="18.15" r="0.55"/>
						</g>
						<g>
							<circle fill="#333333" stroke="#9A916C" stroke-width="0.2" stroke-linecap="round" cx="1.65" cy="19.85" r="0.55"/>
							<circle fill="#333333" stroke="#9A916C" stroke-width="0.2" stroke-linecap="round" cx="3.351" cy="19.85" r="0.55"/>
							<circle fill="#333333" stroke="#9A916C" stroke-width="0.2" stroke-linecap="round" cx="5.05" cy="19.85" r="0.55"/>
							<circle fill="#333333" stroke="#9A916C" stroke-width="0.2" stroke-linecap="round" cx="6.75" cy="19.85" r="0.55"/>
						</g>
						<g>
							<circle fill="#333333" stroke="#9A916C" stroke-width="0.2" stroke-linecap="round" cx="11.65" cy="18.15" r="0.55"/>
							<circle fill="#333333" stroke="#9A916C" stroke-width="0.2" stroke-linecap="round" cx="13.351" cy="18.15" r="0.55"/>
							<circle fill="#333333" stroke="#9A916C" stroke-width="0.2" stroke-linecap="round" cx="15.05" cy="18.15" r="0.55"/>
							<circle fill="#333333" stroke="#9A916C" stroke-width="0.2" stroke-linecap="round" cx="16.75" cy="18.15" r="0.55"/>
							<circle fill="#333333" stroke="#9A916C" stroke-width="0.2" stroke-linecap="round" cx="18.45" cy="18.15" r="0.55"/>
							<circle fill="#333333" stroke="#9A916C" stroke-width="0.2" stroke-linecap="round" cx="20.15" cy="18.15" r="0.55"/>
							<circle fill="#333333" stroke="#9A916C" stroke-width="0.2" stroke-linecap="round" cx="21.851" cy="18.15" r="0.55"/>
							<circle fill="#333333" stroke="#9A916C" stroke-width="0.2" stroke-linecap="round" cx="23.55" cy="18.15" r="0.55"/>
							<circle fill="#333333" stroke="#9A916C" stroke-width="0.2" stroke-linecap="round" cx="25.25" cy="18.15" r="0.55"/>
							<circle fill="#333333" stroke="#9A916C" stroke-width="0.2" stroke-linecap="round" cx="26.95" cy="18.15" r="0.55"/>
							<circle fill="#333333" stroke="#9A916C" stroke-width="0.2" stroke-linecap="round" cx="28.65" cy="18.15" r="0.55"/>
							<circle fill="#333333" stroke="#9A916C" stroke-width="0.2" stroke-linecap="round" cx="30.351" cy="18.15" r="0.55"/>
							<circle fill="#333333" stroke="#9A916C" stroke-width="0.2" stroke-linecap="round" cx="32.05" cy="18.15" r="0.55"/>
							<circle fill="#333333" stroke="#9A916C" stroke-width="0.2" stroke-linecap="round" cx="33.75" cy="18.15" r="0.55"/>
							<circle fill="#333333" stroke="#9A916C" stroke-width="0.2" stroke-linecap="round" cx="35.45" cy="18.15" r="0.55"/>
						</g>
						<g>
							<circle fill="#333333" stroke="#9A916C" stroke-width="0.2" stroke-linecap="round" cx="11.65" cy="19.85" r="0.55"/>
							<circle fill="#333333" stroke="#9A916C" stroke-width="0.2" stroke-linecap="round" cx="13.351" cy="19.85" r="0.55"/>
							<circle fill="#333333" stroke="#9A916C" stroke-width="0.2" stroke-linecap="round" cx="15.05" cy="19.85" r="0.55"/>
							<circle fill="#333333" stroke="#9A916C" stroke-width="0.2" stroke-linecap="round" cx="16.75" cy="19.85" r="0.55"/>
							<circle fill="#333333" stroke="#9A916C" stroke-width="0.2" stroke-linecap="round" cx="18.45" cy="19.85" r="0.55"/>
							<circle fill="#333333" stroke="#9A916C" stroke-width="0.2" stroke-linecap="round" cx="20.15" cy="19.85" r="0.55"/>
							<circle fill="#333333" stroke="#9A916C" stroke-width="0.2" stroke-linecap="round" cx="21.851" cy="19.85" r="0.55"/>
							<circle fill="#333333" stroke="#9A916C" stroke-width="0.2" stroke-linecap="round" cx="23.55" cy="19.85" r="0.55"/>
							<circle fill="#333333" stroke="#9A916C" stroke-width="0.2" stroke-linecap="round" cx="25.25" cy="19.85" r="0.55"/>
							<circle fill="#333333" stroke="#9A916C" stroke-width="0.2" stroke-linecap="round" cx="26.95" cy="19.85" r="0.55"/>
							<circle fill="#333333" stroke="#9A916C" stroke-width="0.2" stroke-linecap="round" cx="28.65" cy="19.85" r="0.55"/>
						</g>
					</g>
					<g>
						<rect x="5.575" y="21.26" fill="#999999" width="34.2" height="43.199"/>
						<g>
							<polygon fill="#CCCCCC" points="39.275,21.891 39.275,63.96 6.075,63.96 6.075,63.828 5.354,64.739 5.575,64.96 
								39.775,64.96 40.275,64.46 40.275,21.26 39.996,20.981 							"/>
							<polygon fill="#666666" points="6.075,21.76 39.275,21.76 39.275,21.891 39.996,20.981 39.775,20.76 5.575,20.76 
								5.075,21.26 5.075,64.46 5.354,64.739 6.075,63.828 							"/>
						</g>
						<g transform="translate(27,24.5) rotate(90,5.5,5.5)">
							<path fill="#FFFFFF" d="M5.5,0C2.462,0,0,2.462,0,5.5S2.462,11,5.5,11S11,8.538,11,5.5S8.538,0,5.5,0z M5.5,10.365
								c-2.687,0-4.864-2.18-4.864-4.865c0-2.688,2.178-4.865,4.864-4.865c2.688,0,4.865,2.179,4.865,4.865S8.187,10.365,5.5,10.365
								z"/>
							<path fill="#FFFFFF" d="M7.521,8.397c-0.072-0.05-0.154-0.091-0.22-0.109C7.213,8.261,7.204,8.257,7.199,8.235
								c0.049-0.232,0.11-0.614,0.2-1.358c0.031-0.46,0.089-0.86,0.1-1.355c0-0.146-0.001-0.372-0.05-0.586
								C7.435,4.846,7.4,4.695,7.347,4.571C7.324,4.497,7.253,4.357,7.221,4.256c-0.015-0.069-0.051-0.13-0.01-0.214
								c0.006-0.007,0.019-0.024,0.03-0.039C7.258,3.979,7.305,3.94,7.393,3.876C7.458,3.828,7.5,3.771,7.5,3.729
								c0-0.029-0.028-0.066-0.11-0.142c-0.042-0.04-0.055-0.045-0.076-0.082C7.3,3.466,7.288,3.452,7.288,3.42
								c-0.002-0.055-0.056-0.109-0.1-0.146c-0.01-0.007-0.045-0.018-0.076-0.022C7.094,3.249,7.074,3.247,7.053,3.247
								C6.91,3.246,6.734,3.316,6.648,3.433c-0.058,0.072-0.06,0.299-0.03,0.392c0.028,0.06,0.118,0.132,0.149,0.146
								C6.822,4.007,6.841,3.985,6.86,4.079c0,0.061-0.013,0.099-0.053,0.158C6.793,4.257,6.713,4.414,6.68,4.485
								c-0.009,0.02-0.021,0.05-0.025,0.067C6.65,4.573,6.639,4.599,6.633,4.612c-0.017,0.031-0.016,0.251,0.001,0.33
								C6.65,5.014,6.652,5.313,6.638,5.365C6.631,5.384,6.624,5.467,6.621,5.551C6.617,5.634,6.608,5.743,6.6,5.792
								c-0.019,0.113-0.019,0.188,0,0.287C6.608,6.123,6.617,6.191,6.62,6.23c0.021,0.257,0.067,0.556,0.06,0.828
								c0.005,0.156,0.01,0.58,0.011,0.944l0.002,0.661l0.055,0.003c0.03,0.001,0.233,0.003,0.45,0.003h0.396l0.022-0.028
								C7.629,8.626,7.645,8.6,7.651,8.584C7.66,8.557,7.659,8.55,7.644,8.517C7.623,8.474,7.599,8.451,7.521,8.397z"/>
							<path fill="#FFFFFF" d="M5.258,8.398C5.177,7.876,5.12,7.397,5.026,6.6C4.854,5.517,4.472,3.867,4.171,2.46H3.85H3.529
								C3.177,4.031,2.893,5.021,2.624,6.504C2.497,7.318,2.395,7.963,2.315,8.456l-0.2,0.175L3.51,8.643L3.508,7.994
								C3.507,7.63,3.503,7.206,3.498,7.05c0.003-0.11-0.003-0.226-0.013-0.34h0.743C4.224,6.762,4.22,6.814,4.217,6.868
								C4.14,7.504,4.067,7.994,4.018,8.226C4.022,8.248,4.031,8.253,4.119,8.28C4.186,8.3,4.267,8.341,4.339,8.39
								C4.416,8.441,4.44,8.466,4.461,8.509c0.017,0.032,0.017,0.04,0.008,0.066C4.463,8.592,4.447,8.618,4.435,8.633L4.42,8.65
								l1.133,0.011C5.443,8.577,5.357,8.51,5.258,8.398z M4.039,4.247C4.071,4.35,4.142,4.488,4.165,4.562
								c0.052,0.124,0.088,0.275,0.103,0.365c0.05,0.213,0.05,0.438,0.05,0.585c-0.003,0.16-0.012,0.311-0.023,0.454h-0.89
								C3.402,5.91,3.406,5.854,3.418,5.783c0.009-0.05,0.018-0.157,0.021-0.241S3.45,5.375,3.455,5.355
								C3.47,5.303,3.467,5.005,3.452,4.933c-0.017-0.078-0.018-0.297-0.001-0.33C3.457,4.59,3.467,4.563,3.473,4.545
								C3.478,4.526,3.49,4.496,3.498,4.478c0.033-0.071,0.113-0.229,0.126-0.248c0.04-0.06,0.054-0.098,0.054-0.157
								C3.659,3.977,3.64,3.998,3.586,3.961c-0.032-0.015-0.122-0.086-0.15-0.146C3.407,3.722,3.409,3.497,3.465,3.424
								C3.552,3.308,3.728,3.237,3.87,3.238c0.021,0,0.04,0.002,0.06,0.005c0.03,0.005,0.065,0.016,0.075,0.021
								c0.046,0.036,0.099,0.091,0.101,0.146c0,0.03,0.012,0.045,0.025,0.085C4.154,3.534,4.166,3.54,4.208,3.579
								c0.081,0.076,0.11,0.111,0.11,0.142c0,0.041-0.042,0.101-0.107,0.146C4.123,3.931,4.076,3.971,4.059,3.994
								C4.048,4.009,4.035,4.026,4.03,4.033C3.988,4.117,4.025,4.178,4.039,4.247z"/>
							<circle fill="#FFFFFF" cx="6.014" cy="8.411" r="0.195"/>
							<path fill="#FFFFFF" d="M7.473,2.482v0.255c0.21,0,0.381,0.17,0.381,0.381h0.254C8.107,2.767,7.823,2.482,7.473,2.482z"/>
							<path fill="#FFFFFF" d="M7.473,2.06v0.255c0.443,0,0.804,0.359,0.804,0.805H8.53C8.53,2.533,8.057,2.06,7.473,2.06z"/>
							<path fill="#FFFFFF" d="M7.473,1.637v0.254C8.15,1.891,8.7,2.439,8.7,3.118h0.254C8.954,2.3,8.291,1.637,7.473,1.637z"/>
						</g>
						<g transform="translate(27,25.5) rotate(90,0,11)">
							<path fill="#FFFFFF" d="M21.103,0H4.197C1.879,0,0,1.86,0,4.158v2.685C0,9.139,1.879,11,4.197,11h16.906
								c2.317,0,4.197-1.861,4.197-4.158V4.158C25.3,1.86,23.421,0,21.103,0z M7.545,8.005H6.623L5.582,4.331L4.541,8.005h-0.89
								L2.266,2.69h1.127L4.144,6.1L5.13,2.69h0.955l0.987,3.499l0.794-3.498h1.041L7.545,8.005z M10.062,2.559
								c0.353,0,0.638,0.293,0.638,0.655s-0.286,0.655-0.638,0.655c-0.354,0-0.64-0.293-0.64-0.655S9.709,2.559,10.062,2.559z
								 M9.53,4.364h1.073v3.641H9.53V4.364z M24.402,6.791c0,1.873-1.577,3.391-3.523,3.391h-10.6c1.945,0,3.099-1.518,3.099-3.391
								V4.22c0-1.873,1.577-3.391,3.522-3.391h3.979c1.946,0,3.523,1.518,3.523,3.391V6.791z M22.191,3.213
								c0,0.361-0.33,0.653-0.738,0.653s-0.738-0.292-0.738-0.653s0.33-0.653,0.738-0.653C21.859,2.559,22.191,2.852,22.191,3.213z
								 M15.444,2.702h4.489v1.076h-3.176v1.074h2.979V5.93h-2.979v2.075h-1.314L15.444,2.702L15.444,2.702z M20.826,4.371h1.24
								v3.634h-1.24V4.371z"/>
						</g>
						<g>
							<g>
								<path fill="#FFFFFF" stroke="#FFFFFF" stroke-width="0.2" stroke-miterlimit="10" d="M22.84,25.979l1.938-0.421v-0.013
									c-0.271,0.019-0.476,0.027-0.614,0.027H22.84v-0.229h2.213v0.374l-1.805,0.375v0.009l1.805,0.378v0.382H22.84V26.63h1.344
									c0.104,0,0.301,0.008,0.593,0.021v-0.012L22.84,26.21V25.979z M22.811,28.044c0-0.537,0.382-0.806,1.144-0.806
									c0.757,0,1.136,0.27,1.136,0.809c0,0.259-0.099,0.456-0.296,0.595c-0.197,0.138-0.479,0.207-0.843,0.207
									s-0.646-0.07-0.843-0.209C22.908,28.5,22.811,28.302,22.811,28.044z M23.058,28.044c0,0.175,0.072,0.303,0.22,0.384
									c0.146,0.081,0.371,0.121,0.674,0.121c0.306,0,0.53-0.041,0.675-0.124c0.145-0.081,0.216-0.208,0.216-0.379
									c0-0.34-0.297-0.51-0.891-0.51C23.354,27.537,23.058,27.706,23.058,28.044z M22.84,29.253h2.213v0.519
									c0,0.319-0.096,0.568-0.285,0.747c-0.189,0.178-0.457,0.267-0.8,0.267c-0.362,0-0.644-0.092-0.837-0.277
									c-0.192-0.185-0.291-0.45-0.291-0.799V29.253z M24.812,29.537h-1.729v0.146c0,0.537,0.292,0.805,0.876,0.805
									c0.569,0,0.854-0.249,0.854-0.746V29.537z M22.84,32.59v-1.273h2.213v1.273h-0.248v-0.992H24.12v0.934h-0.245v-0.934h-0.787
									v0.992H22.84z M22.84,33.277h2.213v0.283h-1.962v0.961H22.84V33.277z"/>
								<path fill="#FFFFFF" stroke="#FFFFFF" stroke-width="0.2" stroke-miterlimit="10" d="M21.553,26.683v0.301l-2.213-0.74
									v-0.283l2.213-0.736v0.297l-1.401,0.445c-0.128,0.042-0.298,0.087-0.506,0.134c0.146,0.03,0.316,0.078,0.516,0.141
									L21.553,26.683z M19.34,28.715V27.44h2.213v1.273h-0.248v-0.992H20.62v0.934h-0.245v-0.934h-0.787v0.992L19.34,28.715
									L19.34,28.715z M19.34,30.702v-0.325l1.832-0.878v-0.012c-0.279,0.018-0.489,0.027-0.632,0.027h-1.2v-0.262h2.213v0.323
									l-1.82,0.875v0.009c0.306-0.014,0.51-0.021,0.609-0.021h1.211v0.263L19.34,30.702L19.34,30.702z M19.34,31.191h2.213v0.518
									c0,0.32-0.096,0.569-0.285,0.747s-0.457,0.268-0.8,0.268c-0.362,0-0.644-0.093-0.837-0.277
									c-0.192-0.184-0.291-0.451-0.291-0.799V31.191z M21.312,31.475h-1.729v0.146c0,0.537,0.292,0.806,0.876,0.806
									c0.569,0,0.854-0.249,0.854-0.746V31.475z M19.311,33.857c0-0.537,0.382-0.805,1.144-0.805c0.757,0,1.136,0.27,1.136,0.809
									c0,0.258-0.099,0.455-0.296,0.594c-0.197,0.137-0.479,0.207-0.843,0.207s-0.646-0.07-0.843-0.209
									C19.408,34.312,19.311,34.115,19.311,33.857z M19.558,33.857c0,0.176,0.072,0.303,0.22,0.385
									c0.146,0.08,0.371,0.121,0.674,0.121c0.306,0,0.53-0.041,0.675-0.123s0.216-0.209,0.216-0.379
									c0-0.341-0.297-0.511-0.891-0.511C19.854,33.351,19.558,33.52,19.558,33.857z M20.254,35.428H19.34v-0.283h2.213v0.541
									c0,0.523-0.209,0.787-0.628,0.787c-0.29,0-0.485-0.146-0.594-0.438l-0.991,0.602v-0.331l0.914-0.53V35.428z M20.493,35.428
									v0.248c0,0.173,0.033,0.3,0.1,0.382c0.067,0.082,0.174,0.122,0.318,0.122c0.143,0,0.244-0.04,0.308-0.121
									c0.062-0.08,0.096-0.21,0.096-0.391v-0.24H20.493z"/>
							</g>
							<g>
								<path fill="#FFFFFF" stroke="#FFFFFF" stroke-width="0.2" stroke-miterlimit="10" d="M22.84,42.603v-1.274h2.213v1.274
									h-0.248V41.61H24.12v0.935h-0.245V41.61h-0.787v0.993H22.84z M22.914,43.182h0.271c-0.088,0.213-0.131,0.422-0.131,0.627
									c0,0.354,0.121,0.529,0.363,0.529c0.104,0,0.187-0.035,0.242-0.105c0.055-0.071,0.123-0.215,0.201-0.434
									c0.072-0.21,0.16-0.359,0.264-0.451c0.104-0.093,0.235-0.138,0.399-0.138c0.175,0,0.312,0.063,0.411,0.194
									c0.101,0.13,0.148,0.308,0.148,0.533c0,0.229-0.04,0.439-0.118,0.629l-0.248-0.096c0.078-0.195,0.117-0.377,0.117-0.546
									c0-0.297-0.104-0.442-0.315-0.442c-0.104,0-0.187,0.033-0.247,0.099c-0.062,0.065-0.13,0.203-0.201,0.41
									c-0.089,0.248-0.182,0.413-0.274,0.497c-0.095,0.083-0.216,0.125-0.363,0.125c-0.192,0-0.347-0.07-0.456-0.21
									s-0.166-0.339-0.166-0.597C22.811,43.541,22.845,43.332,22.914,43.182z M23.701,45.484H22.84v-0.28h2.213v0.61
									c0,0.52-0.216,0.776-0.646,0.776c-0.223,0-0.396-0.067-0.52-0.209c-0.123-0.14-0.187-0.343-0.187-0.608V45.484z
									 M23.94,45.484v0.258c0,0.199,0.035,0.343,0.106,0.43c0.073,0.086,0.188,0.131,0.342,0.131c0.281,0,0.423-0.172,0.423-0.514
									v-0.305H23.94z M24.012,48.062c-0.161,0.312-0.358,0.468-0.595,0.468c-0.183,0-0.33-0.063-0.439-0.19
									c-0.11-0.128-0.167-0.296-0.167-0.505c0-0.218,0.053-0.388,0.155-0.51c0.104-0.122,0.251-0.183,0.438-0.183
									c0.26,0,0.458,0.142,0.595,0.427c0.146-0.237,0.334-0.356,0.56-0.356c0.162,0,0.292,0.061,0.388,0.178
									c0.096,0.116,0.144,0.268,0.144,0.444c0,0.188-0.048,0.337-0.145,0.451s-0.227,0.173-0.391,0.173
									C24.322,48.459,24.143,48.327,24.012,48.062z M23.895,47.796c-0.121-0.256-0.285-0.385-0.491-0.385
									c-0.242,0-0.363,0.142-0.363,0.418c0,0.138,0.033,0.244,0.101,0.319c0.064,0.074,0.157,0.111,0.274,0.111
									c0.091,0,0.172-0.031,0.242-0.097c0.068-0.062,0.143-0.171,0.217-0.323L23.895,47.796z M24.123,47.839
									c0.104,0.233,0.244,0.353,0.421,0.353c0.104,0,0.181-0.031,0.233-0.096c0.054-0.063,0.08-0.15,0.08-0.264
									c0-0.105-0.026-0.189-0.08-0.255c-0.055-0.062-0.132-0.095-0.233-0.095c-0.091,0-0.168,0.023-0.229,0.074
									C24.25,47.607,24.188,47.701,24.123,47.839z M22.84,50.493v-1.379h0.236l0.576,0.53c0.215,0.194,0.375,0.326,0.479,0.389
									c0.105,0.062,0.225,0.094,0.352,0.094c0.112,0,0.203-0.031,0.27-0.097c0.066-0.063,0.101-0.15,0.101-0.259
									c0-0.162-0.068-0.322-0.207-0.482l0.181-0.152c0.174,0.192,0.261,0.405,0.261,0.639c0,0.195-0.054,0.351-0.161,0.464
									c-0.104,0.112-0.25,0.17-0.431,0.17c-0.12,0-0.243-0.03-0.37-0.09c-0.126-0.062-0.314-0.206-0.566-0.44l-0.451-0.426h-0.015
									v1.042L22.84,50.493L22.84,50.493z M25.057,52.305h-0.233c0.022-0.072,0.036-0.154,0.036-0.252
									c0-0.227-0.071-0.396-0.214-0.51c-0.144-0.111-0.367-0.176-0.678-0.186v0.019c0.172,0.097,0.258,0.25,0.258,0.464
									c0,0.197-0.061,0.354-0.181,0.465c-0.12,0.109-0.284,0.166-0.492,0.166c-0.229,0-0.41-0.062-0.544-0.184
									c-0.133-0.121-0.198-0.284-0.198-0.489c0-0.22,0.085-0.396,0.256-0.524c0.17-0.129,0.409-0.195,0.722-0.195
									c0.865,0,1.299,0.322,1.299,0.967C25.085,52.148,25.075,52.234,25.057,52.305z M23.553,52.204
									c0.146,0,0.261-0.034,0.339-0.104c0.077-0.068,0.117-0.168,0.117-0.295c0-0.13-0.041-0.236-0.123-0.322
									c-0.082-0.088-0.175-0.131-0.278-0.131c-0.153,0-0.285,0.041-0.397,0.123c-0.11,0.082-0.167,0.188-0.167,0.319
									c0,0.128,0.045,0.229,0.134,0.302C23.263,52.168,23.391,52.204,23.553,52.204z M25.057,54.273h-0.233
									c0.022-0.072,0.036-0.155,0.036-0.252c0-0.228-0.071-0.396-0.214-0.51c-0.144-0.113-0.367-0.177-0.678-0.187v0.021
									c0.172,0.096,0.258,0.25,0.258,0.463c0,0.196-0.061,0.353-0.181,0.463s-0.284,0.168-0.492,0.168
									c-0.229,0-0.41-0.062-0.544-0.185c-0.133-0.12-0.198-0.282-0.198-0.487c0-0.222,0.085-0.396,0.256-0.526
									c0.17-0.13,0.409-0.195,0.722-0.195c0.865,0,1.299,0.322,1.299,0.968C25.085,54.118,25.075,54.204,25.057,54.273z
									 M23.553,54.173c0.146,0,0.261-0.032,0.339-0.104c0.077-0.069,0.117-0.169,0.117-0.296c0-0.129-0.041-0.235-0.123-0.322
									s-0.175-0.13-0.278-0.13c-0.153,0-0.285,0.041-0.397,0.122c-0.11,0.082-0.167,0.188-0.167,0.32
									c0,0.129,0.045,0.229,0.134,0.301C23.263,54.137,23.391,54.173,23.553,54.173z M22.84,55.587l1.938-0.421v-0.013
									c-0.271,0.019-0.476,0.026-0.614,0.026H22.84v-0.229h2.213v0.374L23.248,55.7v0.01l1.805,0.378v0.383H22.84v-0.23h1.344
									c0.104,0,0.301,0.007,0.593,0.021v-0.014l-1.937-0.43V55.587z M22.811,57.684c0-0.537,0.382-0.808,1.144-0.808
									c0.757,0,1.136,0.271,1.136,0.81c0,0.259-0.099,0.457-0.296,0.595s-0.479,0.207-0.843,0.207s-0.646-0.069-0.843-0.209
									C22.908,58.139,22.811,57.939,22.811,57.684z M23.058,57.684c0,0.174,0.072,0.303,0.22,0.383
									c0.146,0.082,0.371,0.121,0.674,0.121c0.306,0,0.53-0.041,0.675-0.123s0.216-0.207,0.216-0.379
									c0-0.34-0.297-0.511-0.891-0.511C23.354,57.176,23.058,57.346,23.058,57.684z M22.84,58.924h2.213v0.52
									c0,0.32-0.096,0.568-0.285,0.746c-0.189,0.18-0.457,0.269-0.8,0.269c-0.362,0-0.644-0.093-0.837-0.276
									c-0.192-0.186-0.291-0.451-0.291-0.8V58.924z M24.812,59.207h-1.729v0.146c0,0.537,0.292,0.805,0.876,0.805
									c0.569,0,0.854-0.248,0.854-0.746V59.207z"/>
								<path fill="#FFFFFF" stroke="#FFFFFF" stroke-width="0.2" stroke-miterlimit="10" d="M19.34,42.72l0.688-0.219v-0.743
									l-0.688-0.222V41.25l2.224,0.731v0.295L19.34,43.01V42.72z M20.275,42.422l0.642-0.201c0.125-0.039,0.239-0.07,0.342-0.095
									c-0.1-0.02-0.189-0.043-0.274-0.068l-0.707-0.219L20.275,42.422L20.275,42.422z M19.34,44.653v-1.175h0.188l0.029,0.444
									h1.778l0.03-0.444h0.187v1.175h-0.187l-0.03-0.445h-1.778l-0.029,0.445H19.34z M20.044,45.507h0.254v0.997h-0.254V45.507z
									 M19.34,48.084v-0.281h1.965v-0.635h0.248v1.547h-0.248v-0.631H19.34z M19.34,50.607v-0.282h1.032v-0.888H19.34v-0.282
									h2.213v0.282H20.62v0.888h0.933v0.282H19.34z M19.34,52.405V51.23h0.188l0.029,0.445h1.778l0.03-0.445h0.187v1.175h-0.187
									l-0.03-0.445h-1.778l-0.029,0.445H19.34z M19.34,54.48v-0.326l1.832-0.879v-0.012c-0.279,0.02-0.489,0.026-0.632,0.026h-1.2
									v-0.26h2.213v0.321l-1.82,0.875v0.011c0.306-0.015,0.51-0.021,0.609-0.021h1.211v0.265H19.34L19.34,54.48z M19.34,56.578
									v-0.319l1.059-0.682l-0.174-0.212H19.34v-0.281h2.213v0.281h-1.104l0.254,0.184l0.853,0.688v0.316l-0.964-0.789
									L19.34,56.578z M19.34,58.307v-1.274h2.213v1.274h-0.248v-0.992H20.62v0.934h-0.245v-0.934h-0.787v0.992H19.34L19.34,58.307
									z M20.254,59.205H19.34v-0.283h2.213v0.541c0,0.524-0.209,0.787-0.628,0.787c-0.29,0-0.485-0.146-0.594-0.438l-0.991,0.601
									v-0.331l0.914-0.529V59.205z M20.493,59.205v0.248c0,0.173,0.033,0.3,0.1,0.382c0.067,0.082,0.174,0.122,0.318,0.122
									c0.143,0,0.244-0.04,0.308-0.121c0.062-0.08,0.096-0.21,0.096-0.39v-0.241H20.493z"/>
								<path fill="#FFFFFF" stroke="#FFFFFF" stroke-width="0.2" stroke-miterlimit="10" d="M15.84,42.415v-1.174h0.188
									l0.029,0.446h1.778l0.03-0.446h0.187v1.174h-0.187l-0.03-0.443h-1.778l-0.029,0.443H15.84z M15.914,43.053h0.271
									c-0.088,0.213-0.131,0.422-0.131,0.625c0,0.354,0.121,0.529,0.363,0.529c0.104,0,0.187-0.035,0.242-0.105
									s0.123-0.215,0.201-0.434c0.072-0.21,0.16-0.359,0.264-0.449c0.104-0.094,0.235-0.14,0.399-0.14
									c0.175,0,0.312,0.065,0.411,0.194c0.101,0.13,0.148,0.308,0.148,0.533c0,0.229-0.04,0.439-0.118,0.631l-0.248-0.1
									c0.078-0.193,0.117-0.376,0.117-0.545c0-0.295-0.104-0.441-0.315-0.441c-0.104,0-0.187,0.032-0.247,0.1
									c-0.062,0.064-0.13,0.202-0.201,0.408c-0.089,0.248-0.182,0.414-0.274,0.498c-0.095,0.082-0.216,0.125-0.363,0.125
									c-0.192,0-0.347-0.069-0.456-0.211c-0.109-0.141-0.166-0.338-0.166-0.596C15.811,43.411,15.845,43.202,15.914,43.053z
									 M15.84,45.581l1.938-0.421v-0.012c-0.271,0.018-0.476,0.024-0.614,0.024H15.84v-0.229h2.213v0.374l-1.805,0.376v0.009
									l1.805,0.378v0.382H15.84v-0.23h1.344c0.104,0,0.301,0.008,0.593,0.021v-0.013l-1.937-0.429V45.581z"/>
								<path fill="#FFFFFF" stroke="#FFFFFF" stroke-width="0.2" stroke-miterlimit="10" d="M15.84,51.02v-1.379h0.236l0.576,0.527
									c0.215,0.197,0.375,0.326,0.479,0.391c0.105,0.062,0.225,0.095,0.352,0.095c0.112,0,0.203-0.032,0.27-0.097
									c0.066-0.063,0.101-0.15,0.101-0.262c0-0.16-0.068-0.32-0.207-0.48l0.181-0.153c0.174,0.194,0.261,0.407,0.261,0.639
									c0,0.196-0.054,0.353-0.161,0.466c-0.104,0.11-0.25,0.168-0.431,0.168c-0.12,0-0.243-0.028-0.37-0.088
									c-0.126-0.062-0.314-0.207-0.566-0.44l-0.451-0.427h-0.015v1.043L15.84,51.02L15.84,51.02z M16.296,52.112
									c0,0.153-0.084,0.229-0.252,0.229c-0.167,0-0.251-0.075-0.251-0.229c0-0.152,0.084-0.229,0.251-0.229
									C16.212,51.884,16.296,51.96,16.296,52.112z M16.336,54.67v-0.32H15.84v-0.269h0.496v-1.022h0.241l1.487,1.006v0.285h-1.479
									v0.32H16.336z M16.588,54.081h0.539c0.177,0,0.396,0.007,0.653,0.021v-0.015c-0.104-0.034-0.193-0.081-0.272-0.136
									l-0.92-0.622V54.081z M17.009,55.921v0.64h-1.086c-0.074-0.196-0.112-0.408-0.112-0.637c0-0.265,0.102-0.471,0.303-0.619
									c0.201-0.147,0.479-0.224,0.838-0.224c0.354,0,0.632,0.081,0.833,0.245c0.202,0.163,0.303,0.389,0.303,0.675
									c0,0.193-0.044,0.368-0.131,0.522l-0.245-0.107c0.085-0.146,0.127-0.289,0.127-0.424c0-0.194-0.078-0.346-0.234-0.453
									c-0.155-0.105-0.375-0.162-0.653-0.162c-0.594,0-0.891,0.199-0.891,0.598c0,0.099,0.016,0.199,0.044,0.307h0.658v-0.358
									L17.009,55.921L17.009,55.921z M15.84,58.498v-0.283h1.032v-0.886H15.84v-0.283h2.213v0.283H17.12v0.886h0.933v0.283H15.84z
									 M15.84,60.359v-1.305h0.189l1.266,0.998v-0.949h0.207v1.229h-0.221l-1.234-0.979v1.006H15.84L15.84,60.359z"/>
								<path fill="#FFFFFF" stroke="#FFFFFF" stroke-width="0.2" stroke-miterlimit="10" d="M13.201,41.647H12.34v-0.281h2.213
									v0.611c0,0.519-0.216,0.777-0.646,0.777c-0.223,0-0.396-0.069-0.52-0.21c-0.123-0.14-0.187-0.343-0.187-0.608V41.647z
									 M13.44,41.647v0.258c0,0.199,0.035,0.343,0.106,0.429c0.073,0.087,0.188,0.13,0.342,0.13c0.281,0,0.423-0.171,0.423-0.512
									v-0.305H13.44z M12.34,44.559l0.688-0.22v-0.741l-0.688-0.224v-0.287l2.224,0.731v0.295l-2.224,0.734V44.559z M13.275,44.26
									l0.642-0.201c0.125-0.039,0.239-0.07,0.342-0.096c-0.1-0.02-0.189-0.043-0.274-0.068l-0.707-0.217L13.275,44.26
									L13.275,44.26z"/>
								<path fill="#FFFFFF" stroke="#FFFFFF" stroke-width="0.2" stroke-miterlimit="10" d="M13.319,49.814v-0.586h0.227v0.586
									h0.589v0.227h-0.589v0.586h-0.227v-0.586h-0.583v-0.227H13.319z M12.34,52.557v-1.379h0.236l0.576,0.528
									c0.215,0.196,0.375,0.326,0.479,0.39c0.105,0.062,0.225,0.094,0.352,0.094c0.112,0,0.203-0.031,0.27-0.096
									c0.066-0.063,0.101-0.15,0.101-0.261c0-0.161-0.068-0.321-0.207-0.479l0.181-0.154c0.174,0.193,0.261,0.406,0.261,0.639
									c0,0.195-0.054,0.352-0.161,0.465c-0.104,0.111-0.25,0.17-0.431,0.17c-0.12,0-0.243-0.031-0.37-0.092
									c-0.126-0.06-0.314-0.206-0.566-0.439l-0.451-0.424h-0.015v1.041L12.34,52.557L12.34,52.557z M12.429,53.137h0.263
									c-0.099,0.146-0.146,0.325-0.146,0.545c0,0.338,0.158,0.508,0.478,0.508c0.297,0,0.443-0.174,0.443-0.521
									c0-0.09-0.014-0.206-0.04-0.35l0.087-0.136l1.041,0.082v1.045h-0.251v-0.807l-0.635-0.059
									c0.021,0.107,0.03,0.213,0.03,0.316c0,0.211-0.059,0.383-0.173,0.514c-0.115,0.131-0.273,0.195-0.477,0.195
									c-0.234,0-0.419-0.07-0.547-0.209c-0.129-0.141-0.192-0.336-0.192-0.59C12.311,53.448,12.351,53.27,12.429,53.137z
									 M12.562,56.171v-0.012c-0.169-0.114-0.253-0.276-0.253-0.487c0-0.201,0.074-0.361,0.228-0.478
									c0.149-0.116,0.361-0.175,0.632-0.175c0.272,0,0.484,0.06,0.637,0.175c0.151,0.116,0.229,0.274,0.229,0.478
									c0,0.207-0.081,0.37-0.242,0.487v0.019c0.13-0.013,0.212-0.019,0.245-0.019h0.66v0.274H12.34V56.21L12.562,56.171z
									 M13.105,56.159h0.062c0.229,0,0.394-0.035,0.489-0.104c0.098-0.07,0.146-0.183,0.146-0.334
									c0-0.274-0.213-0.412-0.639-0.412c-0.418,0-0.627,0.139-0.627,0.414c0,0.152,0.045,0.265,0.134,0.33
									C12.762,56.119,12.906,56.155,13.105,56.159z M14.553,56.955v0.666c0,0.277-0.044,0.479-0.133,0.604
									c-0.088,0.125-0.229,0.188-0.427,0.188c-0.13,0-0.237-0.039-0.323-0.119c-0.085-0.078-0.138-0.186-0.154-0.318h-0.017
									c-0.054,0.334-0.227,0.502-0.518,0.502c-0.199,0-0.356-0.064-0.473-0.193c-0.114-0.129-0.171-0.305-0.171-0.525v-0.799
									h2.214L14.553,56.955L14.553,56.955z M13.378,57.238h-0.799v0.465c0,0.314,0.138,0.471,0.415,0.471
									c0.256,0,0.384-0.16,0.384-0.488V57.238z M13.614,57.238v0.431c0,0.157,0.027,0.272,0.083,0.347
									c0.056,0.07,0.146,0.105,0.273,0.105c0.121,0,0.208-0.039,0.263-0.115c0.053-0.076,0.078-0.197,0.078-0.365v-0.4
									L13.614,57.238L13.614,57.238z M12.34,60.168h1.07c0.146,0,0.25-0.013,0.307-0.04c0.06-0.024,0.087-0.069,0.087-0.134
									c0-0.088-0.042-0.15-0.126-0.189c-0.084-0.041-0.224-0.062-0.421-0.062H12.34v-0.244h1.07c0.263,0,0.394-0.062,0.394-0.188
									c0-0.084-0.039-0.146-0.119-0.183c-0.081-0.037-0.24-0.055-0.481-0.055H12.34v-0.245h1.662v0.191l-0.225,0.041v0.016
									c0.17,0.066,0.255,0.169,0.255,0.304c0,0.165-0.092,0.272-0.275,0.322v0.01c0.186,0.076,0.275,0.188,0.275,0.331
									c0,0.13-0.047,0.225-0.141,0.282c-0.095,0.058-0.249,0.087-0.469,0.087H12.34V60.168z"/>
								<path fill="#FFFFFF" stroke="#FFFFFF" stroke-width="0.2" stroke-miterlimit="10" d="M10.012,42.156
									c-0.161,0.312-0.358,0.468-0.595,0.468c-0.183,0-0.33-0.062-0.439-0.189c-0.11-0.128-0.167-0.296-0.167-0.505
									c0-0.219,0.053-0.389,0.155-0.511c0.104-0.122,0.251-0.183,0.438-0.183c0.26,0,0.458,0.142,0.595,0.427
									c0.146-0.236,0.334-0.355,0.56-0.355c0.162,0,0.292,0.06,0.388,0.177c0.096,0.117,0.144,0.267,0.144,0.445
									c0,0.187-0.048,0.337-0.145,0.45c-0.097,0.115-0.227,0.174-0.391,0.174C10.322,42.553,10.143,42.421,10.012,42.156z
									 M9.895,41.89c-0.121-0.257-0.285-0.386-0.491-0.386c-0.242,0-0.363,0.141-0.363,0.418c0,0.139,0.033,0.244,0.101,0.319
									c0.064,0.074,0.157,0.112,0.274,0.112c0.091,0,0.172-0.032,0.242-0.097c0.068-0.062,0.143-0.171,0.217-0.322L9.895,41.89z
									 M10.123,41.933c0.104,0.232,0.244,0.351,0.421,0.351c0.104,0,0.181-0.031,0.233-0.095c0.054-0.064,0.08-0.151,0.08-0.263
									c0-0.106-0.026-0.191-0.08-0.256c-0.055-0.062-0.132-0.095-0.233-0.095c-0.091,0-0.168,0.025-0.229,0.075
									C10.25,41.701,10.188,41.795,10.123,41.933z M8.811,43.709c0-0.23,0.099-0.404,0.293-0.523s0.479-0.181,0.848-0.181
									c0.759,0,1.139,0.234,1.139,0.704c0,0.234-0.098,0.411-0.293,0.53c-0.194,0.12-0.478,0.18-0.846,0.18
									C9.189,44.419,8.811,44.182,8.811,43.709z M9.044,43.709c0,0.148,0.071,0.257,0.213,0.327
									c0.144,0.069,0.373,0.104,0.692,0.104c0.317,0,0.548-0.035,0.688-0.104c0.144-0.07,0.214-0.179,0.214-0.327
									c0-0.146-0.069-0.254-0.211-0.32c-0.142-0.067-0.371-0.104-0.69-0.104c-0.32,0-0.552,0.034-0.693,0.104
									C9.115,43.455,9.044,43.562,9.044,43.709z M8.84,46.184v-1.379h0.236l0.576,0.528c0.215,0.197,0.375,0.326,0.479,0.392
									c0.105,0.062,0.225,0.094,0.352,0.094c0.112,0,0.203-0.032,0.27-0.098c0.066-0.062,0.101-0.149,0.101-0.261
									c0-0.161-0.068-0.319-0.207-0.479l0.181-0.154c0.174,0.193,0.261,0.406,0.261,0.639c0,0.196-0.054,0.352-0.161,0.465
									c-0.104,0.111-0.25,0.17-0.431,0.17c-0.12,0-0.243-0.029-0.37-0.091c-0.126-0.06-0.314-0.204-0.566-0.438l-0.451-0.426
									H9.091v1.041L8.84,46.184L8.84,46.184z M9.296,47.277c0,0.154-0.084,0.229-0.252,0.229c-0.167,0-0.251-0.074-0.251-0.229
									c0-0.152,0.084-0.229,0.251-0.229C9.212,47.049,9.296,47.125,9.296,47.277z M8.84,49.279v-0.268h1.382
									c0.123,0,0.308,0.004,0.548,0.012c-0.044-0.039-0.102-0.102-0.171-0.185l-0.185-0.223l0.188-0.146l0.451,0.579v0.229
									L8.84,49.279L8.84,49.279z M8.84,51.062v-0.269h1.382c0.123,0,0.308,0.004,0.548,0.013
									c-0.044-0.039-0.102-0.101-0.171-0.184L10.414,50.4l0.188-0.146l0.451,0.579v0.229H8.84z M9.05,52.212v-0.019l-0.21-0.057
									v-0.201h2.355v0.274h-0.569c-0.082,0-0.194-0.004-0.342-0.012v0.012c0.165,0.108,0.248,0.271,0.248,0.487
									c0,0.203-0.075,0.361-0.229,0.479c-0.148,0.114-0.359,0.174-0.632,0.174c-0.271,0-0.482-0.06-0.637-0.176
									c-0.151-0.113-0.229-0.273-0.229-0.477C8.811,52.49,8.891,52.328,9.05,52.212z M9.674,52.212
									c-0.229,0-0.393,0.035-0.488,0.104c-0.099,0.07-0.146,0.183-0.146,0.336c0,0.273,0.213,0.412,0.639,0.412
									c0.418,0,0.627-0.141,0.627-0.416c0-0.155-0.048-0.27-0.143-0.336C10.067,52.246,9.904,52.212,9.674,52.212z M11.053,55.018
									L8.84,54.068v-0.271l2.213,0.949V55.018z M10.502,56.967h-0.171l-0.041-0.296c-0.086,0.065-0.193,0.099-0.322,0.099
									c-0.163,0-0.292-0.055-0.389-0.16c-0.097-0.107-0.146-0.258-0.146-0.448c0-0.056,0.003-0.101,0.01-0.131
									c-0.058-0.101-0.123-0.151-0.201-0.151c-0.084,0-0.127,0.081-0.127,0.244v0.283c0,0.175-0.039,0.31-0.116,0.402
									c-0.078,0.092-0.188,0.14-0.333,0.14c-0.381,0-0.571-0.285-0.571-0.854c0-0.221,0.041-0.389,0.122-0.503
									c0.081-0.112,0.195-0.172,0.343-0.172c0.215,0,0.351,0.121,0.407,0.363c0.049-0.097,0.125-0.146,0.233-0.146
									c0.113,0,0.21,0.065,0.29,0.199c0.038-0.09,0.1-0.16,0.186-0.212c0.087-0.051,0.183-0.077,0.282-0.077
									c0.186,0,0.325,0.055,0.425,0.161c0.102,0.108,0.149,0.263,0.149,0.46c0,0.087-0.01,0.162-0.03,0.229V56.967z M8.867,56.311
									v-0.285c0-0.23-0.101-0.348-0.3-0.348c-0.177,0-0.266,0.137-0.266,0.409c0,0.397,0.113,0.599,0.339,0.599
									c0.09,0,0.147-0.024,0.181-0.074C8.853,56.561,8.867,56.46,8.867,56.311z M9.624,56.162c0,0.227,0.116,0.337,0.348,0.337
									c0.241,0,0.362-0.112,0.362-0.34s-0.122-0.341-0.366-0.341C9.738,55.818,9.624,55.934,9.624,56.162z M11.053,58.583
									L8.84,57.634v-0.27l2.213,0.948V58.583z M8.84,60.171h1.07c0.263,0,0.394-0.118,0.394-0.358c0-0.312-0.2-0.465-0.603-0.465
									H8.84V59.07h1.662v0.223l-0.225,0.041v0.016c0.17,0.104,0.255,0.272,0.255,0.51c0,0.393-0.202,0.589-0.607,0.589H8.84
									V60.171z"/>
							</g>
						</g>
						<g transform="translate(6.5,27) rotate(90,6.5475,4.5915)">
							<path fill="#FFFFFF" d="M1.404,2.807V1.404h1.404H4.97V0H1.404C0.628-0.001,0,0.628,0,1.404v7.779h1.404V5.19h2.808V3.949
								H1.404V2.807z"/>
							<path fill="#FFFFFF" d="M11.38,6.493L11.38,6.493C10.828,7.221,9.961,7.7,8.975,7.7c-1.67,0-3.025-1.354-3.025-3.023
								s1.354-3.025,3.025-3.025c0.985,0,1.853,0.479,2.404,1.209h1.715c-0.699-1.583-2.278-2.688-4.119-2.688
								c-2.49,0-4.507,2.018-4.507,4.508c0,2.488,2.018,4.507,4.507,4.507c1.842,0,3.42-1.107,4.12-2.689L11.38,6.493L11.38,6.493z"
								/>
							<path fill="#FFFFFF" d="M8.943,3.369c0.403,0,0.759,0.188,0.999,0.475h1.604c-0.354-1.106-1.379-1.913-2.603-1.913
								c-1.515,0-2.744,1.229-2.744,2.744S7.428,7.42,8.943,7.42c1.224,0,2.248-0.809,2.602-1.913H9.941V5.506
								C9.701,5.793,9.345,5.98,8.943,5.98c-0.72,0-1.305-0.584-1.305-1.306C7.638,3.954,8.222,3.369,8.943,3.369z"/>
						</g>
					</g>
				</g>
			</g>
			<g id="resistors" transform="translate(0.737, 0)">
				<g>
					<g transform="translate(17.008, 72.702) rotate(-90, 1.334, 1.334)">
						<g>
							
								<rect x="-2.933" y="0.934" transform="matrix(-2.547107e-06 -1 1 -2.547107e-06 -1.933 4.6028)" fill="none" stroke="#FFFFFF" stroke-width="0.4" width="8.535" height="4.668"/>
						</g>
						
							<rect x="0" y="0" transform="matrix(-2.547107e-06 -1 1 -2.547107e-06 -4.237890e-04 2.6682)" fill="#AAAAAA" width="2.668" height="2.668"/>
						
							<rect x="0.001" y="3.868" transform="matrix(-2.547107e-06 -1 1 -2.547107e-06 -3.8666 6.5364)" fill="#AAAAAA" width="2.668" height="2.668"/>
						
							<rect x="-0.934" y="2.134" transform="matrix(-2.547107e-06 -1 1 -2.547107e-06 -1.934 4.6018)" fill="#333333" width="4.535" height="2.268"/>
						
							<rect x="0.834" y="0.366" transform="matrix(-2.547107e-06 -1 1 -2.547107e-06 -0.166 2.8347)" fill="#CCCCCC" width="1" height="2.269"/>
						
							<rect x="0.834" y="3.901" transform="matrix(-2.547107e-06 -1 1 -2.547107e-06 -3.7011 6.3699)" fill="#CCCCCC" width="1" height="2.269"/>
						
							<rect x="-2.018" y="3.218" transform="matrix(-2.547107e-06 -1 1 -2.547107e-06 -3.018 3.5178)" opacity="0.5" enable-background="new    " width="4.535" height="0.1"/>
						
							<rect x="1.285" y="4.451" transform="matrix(-2.547107e-06 -1 1 -2.547107e-06 -4.2509 6.9197)" opacity="0.5" enable-background="new    " width="0.1" height="2.269"/>
						
							<rect x="0.149" y="3.217" transform="matrix(-2.547107e-06 -1 1 -2.547107e-06 -0.851 5.6848)" opacity="0.5" fill="#FFFFFF" enable-background="new    " width="4.535" height="0.102"/>
						
							<rect x="1.284" y="-0.084" transform="matrix(-2.547107e-06 -1 1 -2.547107e-06 0.2838 2.384)" opacity="0.5" fill="#FFFFFF" enable-background="new    " width="0.1" height="2.268"/>
					</g>
					<g transform="translate(62.528, 72.702) rotate(-90, 1.334, 1.334)">
						<g>
							
								<rect x="-2.934" y="0.933" transform="matrix(-2.547107e-06 -1 1 -2.547107e-06 -1.9336 4.6014)" fill="none" stroke="#FFFFFF" stroke-width="0.4" width="8.535" height="4.668"/>
						</g>
						
							<rect x="0.001" y="0" transform="matrix(-2.547107e-06 -1 1 -2.547107e-06 0.001 2.6687)" fill="#AAAAAA" width="2.668" height="2.668"/>
						
							<rect x="0" y="3.867" transform="matrix(-2.547107e-06 -1 1 -2.547107e-06 -3.8672 6.535)" fill="#AAAAAA" width="2.668" height="2.668"/>
						
							<rect x="-0.933" y="2.133" transform="matrix(-2.547107e-06 -1 1 -2.547107e-06 -1.9331 4.6018)" fill="#333333" width="4.535" height="2.269"/>
						
							<rect x="0.834" y="0.366" transform="matrix(-2.547107e-06 -1 1 -2.547107e-06 -0.166 2.8338)" fill="#CCCCCC" width="1" height="2.268"/>
						
							<rect x="0.834" y="3.901" transform="matrix(-2.547107e-06 -1 1 -2.547107e-06 -3.7011 6.3689)" fill="#CCCCCC" width="1" height="2.268"/>
						
							<rect x="-2.017" y="3.217" transform="matrix(-2.547107e-06 -1 1 -2.547107e-06 -3.0171 3.5179)" opacity="0.5" enable-background="new    " width="4.535" height="0.101"/>
						
							<rect x="1.284" y="4.451" transform="matrix(-2.547107e-06 -1 1 -2.547107e-06 -4.2505 6.9192)" opacity="0.5" enable-background="new    " width="0.102" height="2.269"/>
						
							<rect x="0.149" y="3.217" transform="matrix(-2.547107e-06 -1 1 -2.547107e-06 -0.8505 5.6844)" opacity="0.5" fill="#FFFFFF" enable-background="new    " width="4.535" height="0.102"/>
						
							<rect x="1.283" y="-0.084" transform="matrix(-2.547107e-06 -1 1 -2.547107e-06 0.2842 2.3836)" opacity="0.5" fill="#FFFFFF" enable-background="new    " width="0.102" height="2.268"/>
					</g>
					<g transform="translate(39.9325, 72.702) rotate(-90, 1.334, 1.334)">
						<g>
							
								<rect x="-2.934" y="0.933" transform="matrix(-2.547107e-06 -1 1 -2.547107e-06 -1.9333 4.6011)" fill="none" stroke="#FFFFFF" stroke-width="0.4" width="8.535" height="4.668"/>
						</g>
						
							<rect x="-0.001" y="0" transform="matrix(-2.547107e-06 -1 1 -2.547107e-06 -2.406836e-04 2.668)" fill="#AAAAAA" width="2.669" height="2.668"/>
						
							<rect x="0.001" y="3.867" transform="matrix(-2.547107e-06 -1 1 -2.547107e-06 -3.866 6.5357)" fill="#AAAAAA" width="2.668" height="2.668"/>
						
							<rect x="-0.933" y="2.133" transform="matrix(-2.547107e-06 -1 1 -2.547107e-06 -1.9329 4.6016)" fill="#333333" width="4.535" height="2.269"/>
						
							<rect x="0.834" y="0.366" transform="matrix(-2.547107e-06 -1 1 -2.547107e-06 -0.1658 2.8336)" fill="#CCCCCC" width="1" height="2.268"/>
						
							<rect x="0.834" y="3.901" transform="matrix(-2.547107e-06 -1 1 -2.547107e-06 -3.7009 6.3687)" fill="#CCCCCC" width="1" height="2.268"/>
						
							<rect x="-2.017" y="3.217" transform="matrix(-2.547107e-06 -1 1 -2.547107e-06 -3.0168 3.5176)" opacity="0.5" enable-background="new    " width="4.535" height="0.101"/>
						
							<rect x="1.284" y="4.451" transform="matrix(-2.547107e-06 -1 1 -2.547107e-06 -4.2507 6.9195)" opacity="0.5" enable-background="new    " width="0.101" height="2.269"/>
						
							<rect x="0.149" y="3.216" transform="matrix(-2.547107e-06 -1 1 -2.547107e-06 -0.8503 5.6842)" opacity="0.5" fill="#FFFFFF" enable-background="new    " width="4.535" height="0.102"/>
						
							<rect x="1.284" y="-0.084" transform="matrix(-2.547107e-06 -1 1 -2.547107e-06 0.2839 2.3839)" opacity="0.5" fill="#FFFFFF" enable-background="new    " width="0.101" height="2.268"/>
					</g>
				</g>
			</g>
			<g id="Pin_labels" transform="translate(0.737, 0)">
				<g>
					<g transform="translate(8, 23)">
						
							<path fill="none" stroke="#020202" stroke-width="0.4" stroke-linecap="round" stroke-linejoin="round" stroke-miterlimit="10" d="
							M0.096,1.705V0.096 M0.096,0.096H0.9 M0.9,0.096l0.284,0.236 M1.184,0.333v0.568 M1.184,0.9L0.9,1.184 M0.9,1.184H0.096
							 M0.617,1.184l0.568,0.521 M2.84,0.096H1.751 M1.751,0.096v1.608 M1.751,1.705H2.84 M1.751,0.9h0.521 M4.497,0.333
							L4.212,0.096 M4.212,0.096H3.692 M3.692,0.096L3.408,0.333 M3.408,0.333v0.284 M3.408,0.617l0.284,0.284 M3.692,0.9h0.521
							 M4.212,0.9l0.283,0.284 M4.497,1.184V1.42 M4.212,1.705l0.283-0.284 M4.212,1.705H3.692 M3.692,1.705L3.408,1.421
							 M5.584,1.705V0.096 M5.064,0.096h1.088"/>
						
							<path fill="none" stroke="#020202" stroke-width="0.4" stroke-linecap="round" stroke-linejoin="round" stroke-miterlimit="10" d="
							M0.096,8.952V7.864 M0.617,7.296L0.096,7.864 M1.184,7.864L0.616,7.296 M1.184,7.864v1.088 M0.096,8.1h1.088 M1.751,7.296
							v1.656 M1.751,8.952h0.805 M2.556,8.952L2.84,8.668 M2.84,8.668V7.58 M2.84,7.58L2.556,7.296 M2.556,7.296H1.751 M4.497,7.58
							L4.212,7.296 M4.212,7.296H3.692 M3.692,7.296L3.408,7.58 M3.408,7.58v1.088 M3.408,8.668l0.284,0.284 M3.692,8.952h0.521
							 M4.212,8.952l0.283-0.284"/>
						
							<path fill="none" stroke="#020202" stroke-width="0.4" stroke-linecap="round" stroke-linejoin="round" stroke-miterlimit="10" d="
							M1.184,14.78L0.9,14.496 M0.9,14.496H0.38 M0.38,14.496L0.096,14.78 M0.096,14.78v1.088 M0.096,15.868l0.284,0.284
							 M0.38,16.152h0.521 M1.184,15.868L0.9,16.152 M1.751,16.152v-1.656 M1.751,15.348H2.84 M2.84,14.496v1.656 M3.408,16.436
							h1.089 M5.064,16.152v-1.656 M5.064,14.496h0.804 M5.868,14.496l0.284,0.284 M6.152,14.78v0.568 M6.152,15.348l-0.284,0.283
							 M5.868,15.632H5.064 M6.72,14.496v1.656 M6.72,16.152h0.804 M7.524,16.152l0.284-0.284 M7.808,15.868V14.78 M7.808,14.78
							l-0.284-0.284 M7.524,14.496H6.72"/>
						
							<path fill="none" stroke="#020202" stroke-width="0.4" stroke-linecap="round" stroke-linejoin="round" stroke-miterlimit="10" d="
							M1.184,21.98L0.9,21.696 M0.9,21.696H0.38 M0.38,21.696L0.096,21.98 M0.096,21.98v1.088 M0.096,23.068l0.284,0.283
							 M0.38,23.352h0.521 M0.9,23.352l0.284-0.283 M1.184,23.068V22.5 M1.184,22.5H0.616 M1.751,23.352v-1.655 M1.751,21.696h0.805
							 M2.556,21.696L2.84,21.98 M2.84,21.98v0.521 M2.84,22.5l-0.284,0.284 M2.556,22.784H1.751 M3.408,23.352h0.521 M3.692,23.352
							v-1.655 M3.408,21.696h0.521 M5.3,21.696H4.78 M4.78,21.696L4.497,21.98 M4.497,21.98v1.088 M4.497,23.068l0.283,0.283
							 M4.78,23.352h0.521 M5.3,23.352l0.283-0.283 M5.584,23.068V21.98 M5.584,21.98L5.3,21.696 M6.72,21.696l-0.568,0.521
							 M6.72,21.696v1.655 M6.152,23.352H7.24 M8.896,21.696L8.375,21.98 M8.375,21.98L7.808,22.5 M7.808,22.5v0.568 M7.808,23.068
							l0.284,0.283 M8.092,23.352H8.66 M8.66,23.352l0.236-0.283 M8.896,23.068v-0.284 M8.896,22.784L8.66,22.5 M8.66,22.5H7.808"/>
						
							<path fill="none" stroke="#020202" stroke-width="0.4" stroke-linecap="round" stroke-linejoin="round" stroke-miterlimit="10" d="
							M1.184,29.18L0.9,28.896 M0.9,28.896H0.38 M0.38,28.896L0.096,29.18 M0.096,29.18v1.088 M0.096,30.268l0.284,0.285
							 M0.38,30.553h0.521 M0.9,30.553l0.284-0.285 M1.184,30.268v-0.521 M1.184,29.748H0.616 M1.751,30.553v-1.656 M1.751,28.896
							h0.805 M2.84,29.18l-0.284-0.283 M2.84,29.18v0.567 M2.84,29.748l-0.284,0.283 M2.556,30.031H1.751 M3.408,30.553h0.521
							 M3.692,30.553v-1.656 M3.408,28.896h0.521 M5.3,28.896H4.78 M4.78,28.896L4.497,29.18 M4.497,29.18v1.088 M4.497,30.268
							l0.283,0.285 M4.78,30.553h0.521 M5.3,30.553l0.283-0.285 M5.584,30.268V29.18 M5.584,29.18L5.3,28.896 M6.152,29.464
							l0.568-0.567 M6.72,28.896v1.656 M6.152,30.553H7.24 M8.66,30.553v-1.656 M8.66,28.896l-0.852,0.852 M7.808,29.748h1.088"/>
						
							<path fill="none" stroke="#020202" stroke-width="0.4" stroke-linecap="round" stroke-linejoin="round" stroke-miterlimit="10" d="
							M0.9,36.096l0.284,0.283 M0.9,36.096H0.38 M0.38,36.096L0.096,36.38 M0.096,36.38v1.089 M0.096,37.469l0.284,0.282
							 M0.38,37.752h0.521 M0.9,37.752l0.284-0.283 M1.184,37.469V36.9 M1.184,36.9H0.616 M1.751,37.752v-1.654 M1.751,36.096h0.805
							 M2.556,36.096L2.84,36.38 M2.84,36.38V36.9 M2.84,36.9l-0.284,0.283 M2.556,37.184H1.751 M3.408,37.752h0.521 M3.692,37.752
							v-1.654 M3.408,36.096h0.521 M5.3,36.096H4.78 M4.78,36.096L4.497,36.38 M4.497,36.38v1.089 M4.497,37.469l0.283,0.282
							 M4.78,37.752h0.521 M5.3,37.752l0.283-0.283 M5.584,37.469V36.38 M5.584,36.38L5.3,36.096 M6.152,36.617l0.568-0.521
							 M6.72,36.096v1.655 M6.152,37.752H7.24 M8.896,37.752H7.808 M7.808,37.752l1.088-1.135 M8.896,36.617V36.38 M8.66,36.096
							l0.236,0.283 M8.66,36.096H8.091 M7.808,36.38l0.284-0.282"/>
						
							<path fill="none" stroke="#020202" stroke-width="0.4" stroke-linecap="round" stroke-linejoin="round" stroke-miterlimit="10" d="
							M1.184,43.58L0.9,43.296 M0.9,43.296H0.38 M0.38,43.296L0.096,43.58 M0.096,43.58v1.088 M0.096,44.668l0.284,0.284
							 M0.38,44.952h0.521 M0.9,44.952l0.284-0.284 M1.184,44.668v-0.52 M1.184,44.148H0.616 M1.751,44.952v-1.656 M1.751,43.296
							h0.805 M2.84,43.58l-0.284-0.284 M2.84,43.58v0.568 M2.84,44.148l-0.284,0.235 M2.556,44.384H1.751 M3.408,44.952h0.521
							 M3.692,44.952v-1.656 M3.408,43.296h0.521 M5.3,43.296H4.78 M4.78,43.296L4.497,43.58 M4.497,43.58v1.088 M4.497,44.668
							l0.283,0.284 M4.78,44.952h0.521 M5.3,44.952l0.283-0.284 M5.584,44.668V43.58 M5.584,43.58L5.3,43.296 M6.152,43.864
							l0.568-0.568 M6.72,43.296v1.656 M6.152,44.952H7.24 M7.808,43.58l0.284-0.284 M8.092,43.296H8.66 M8.66,43.296l0.236,0.284
							 M8.896,43.58v0.284 M8.896,43.864L8.66,44.148 M8.66,44.148H8.375 M8.896,44.384L8.66,44.146 M8.896,44.384v0.283
							 M8.896,44.668L8.66,44.952 M8.66,44.952H8.091 M8.092,44.952l-0.284-0.284"/>
						
							<path fill="none" stroke="#020202" stroke-width="0.4" stroke-linecap="round" stroke-linejoin="round" stroke-miterlimit="10" d="
							M0.096,50.496v1.088 M0.096,51.584l0.521,0.568 M0.617,52.152l0.568-0.568 M1.184,51.584v-1.088 M2.84,50.78l-0.284-0.284
							 M2.556,50.496H2.036 M2.036,50.496L1.751,50.78 M1.751,50.78v1.088 M2.036,52.152l-0.282-0.284 M2.036,52.152h0.521
							 M2.556,52.152l0.284-0.284 M4.497,50.78l-0.283-0.284 M4.212,50.496H3.692 M3.692,50.496L3.408,50.78 M3.408,50.78v1.088
							 M3.408,51.868l0.284,0.284 M3.692,52.152h0.521 M4.212,52.152l0.283-0.284"/>
					</g>
					<g transform="translate(69, 23)">
						
							<path fill="none" stroke="#020202" stroke-width="0.4" stroke-linecap="round" stroke-linejoin="round" stroke-miterlimit="10" d="
							M5.208,1.752V0.096 M4.688,0.096h1.088 M7.432,1.752L6.344,0.096 M7.432,0.096L6.344,1.752 M8,0.096v1.655 M8,1.752h0.805
							 M8.804,1.752l0.284-0.283 M9.088,1.468V0.38 M9.088,0.38L8.804,0.096 M8.804,0.096H8"/>
						
							<path fill="none" stroke="#020202" stroke-width="0.4" stroke-linecap="round" stroke-linejoin="round" stroke-miterlimit="10" d="
							M4.688,8.905V7.296 M4.688,7.296h0.804 M5.492,7.296l0.284,0.237 M5.776,7.533v0.568 M5.776,8.1L5.492,8.384 M5.492,8.384
							H4.688 M5.776,8.905L5.208,8.384 M6.344,7.296l1.088,1.609 M7.432,7.296L6.344,8.905 M8,7.296v1.609 M8,8.905h0.805
							 M8.804,8.905l0.284-0.237 M9.088,8.668V7.533 M9.088,7.533L8.804,7.296 M8.804,7.296H8"/>
						
							<path fill="none" stroke="#020202" stroke-width="0.4" stroke-linecap="round" stroke-linejoin="round" stroke-miterlimit="10" d="
							M3.032,14.78l-0.283-0.284 M2.749,14.496H2.228 M2.228,14.496L1.944,14.78 M1.944,14.78v1.088 M1.944,15.868l0.284,0.284
							 M2.228,16.152h0.521 M2.749,16.152l0.283-0.284 M3.032,15.868v-0.52 M3.032,15.348H2.464 M3.6,16.152v-1.656 M3.6,14.496
							h0.804 M4.404,14.496l0.284,0.284 M4.688,14.78v0.568 M4.688,15.348l-0.284,0.235 M4.404,15.584H3.6 M5.256,16.152h0.52
							 M5.541,16.152v-1.656 M5.256,14.496h0.52 M7.148,14.496h-0.52 M6.628,14.496L6.344,14.78 M6.344,14.78v1.088 M6.344,15.868
							l0.284,0.284 M6.628,16.152h0.521 M7.148,16.152l0.284-0.284 M7.432,15.868V14.78 M7.432,14.78l-0.284-0.284 M9.088,14.496H8
							 M8,14.496v0.853 M8,15.348l0.567-0.284 M8.567,15.064h0.237 M8.804,15.064l0.284,0.284 M9.088,15.348v0.521 M9.088,15.868
							l-0.284,0.284 M8.804,16.152H8.284 M8.284,16.152L8,15.868"/>
						
							<path fill="none" stroke="#020202" stroke-width="0.4" stroke-linecap="round" stroke-linejoin="round" stroke-miterlimit="10" d="
							M2.749,21.696l0.283,0.235 M2.749,21.696H2.228 M2.228,21.696l-0.284,0.235 M1.944,21.932v1.137 M2.228,23.305l-0.284-0.236
							 M2.228,23.305h0.521 M2.749,23.305l0.283-0.236 M3.032,23.068V22.5 M3.032,22.5H2.464 M3.6,23.305v-1.608 M3.6,21.696h0.804
							 M4.404,21.696l0.284,0.235 M4.688,21.932V22.5 M4.688,22.5l-0.284,0.284 M4.404,22.784H3.6 M5.256,23.305h0.52 M5.541,23.305
							v-1.608 M5.256,21.696h0.52 M7.148,21.696h-0.52 M6.628,21.696l-0.284,0.235 M6.344,21.932v1.137 M6.344,23.068l0.284,0.236
							 M6.628,23.305h0.521 M7.148,23.305l0.284-0.236 M7.432,23.068v-1.137 M7.432,21.932l-0.284-0.235 M8.804,23.305v-1.608
							 M8.804,21.696L8,22.5 M8,22.5h1.089"/>
						
							<path fill="none" stroke="#020202" stroke-width="0.4" stroke-linecap="round" stroke-linejoin="round" stroke-miterlimit="10" d="
							M3.032,29.18l-0.283-0.283 M2.749,28.896H2.228 M2.228,28.896L1.944,29.18 M1.944,29.18v1.088 M1.944,30.268l0.284,0.285
							 M2.228,30.553h0.521 M2.749,30.553l0.283-0.285 M3.032,30.268V29.7 M3.032,29.7H2.464 M3.6,30.553v-1.656 M3.6,28.896h0.804
							 M4.404,28.896l0.284,0.283 M4.688,29.18v0.521 M4.688,29.7l-0.284,0.284 M4.404,29.984H3.6 M5.256,30.553h0.52 M5.541,30.553
							v-1.656 M5.256,28.896h0.52 M7.148,28.896h-0.52 M6.628,28.896L6.344,29.18 M6.344,29.18v1.088 M6.344,30.268l0.284,0.285
							 M6.628,30.553h0.521 M7.148,30.553l0.284-0.285 M7.432,30.268V29.18 M7.432,29.18l-0.284-0.283 M8,30.268V29.18 M8,29.18
							l0.283-0.283 M8.284,28.896h0.521 M9.088,29.18l-0.284-0.283 M9.088,29.18v1.088 M9.088,30.268l-0.284,0.285 M8.804,30.553
							H8.284 M8.284,30.553L8,30.268 M8,30.268l1.089-1.088"/>
						
							<path fill="none" stroke="#020202" stroke-width="0.4" stroke-linecap="round" stroke-linejoin="round" stroke-miterlimit="10" d="
							M3.032,36.333l-0.283-0.235 M2.749,36.096H2.228 M2.228,36.096l-0.284,0.236 M1.944,36.333v1.136 M2.228,37.705l-0.284-0.236
							 M2.228,37.705h0.521 M2.749,37.705l0.283-0.236 M3.032,37.469V36.9 M3.032,36.9H2.464 M3.6,37.705v-1.607 M3.6,36.096h0.804
							 M4.688,36.333l-0.284-0.235 M4.688,36.333V36.9 M4.688,36.9l-0.284,0.283 M4.404,37.184H3.6 M5.256,37.705h0.52
							 M5.541,37.705v-1.607 M5.256,36.096h0.52 M7.148,36.096h-0.52 M6.628,36.096l-0.284,0.236 M6.344,36.333v1.136 M6.344,37.469
							l0.284,0.235 M6.628,37.705h0.521 M7.148,37.705l0.284-0.236 M7.432,37.469v-1.137 M7.432,36.333l-0.284-0.235 M9.088,37.705
							H8 M8,37.705l1.089-1.088 M9.088,36.617v-0.284 M9.088,36.333l-0.284-0.235 M8.804,36.096H8.284 M8.284,36.096L8,36.333"/>
						
							<path fill="none" stroke="#020202" stroke-width="0.4" stroke-linecap="round" stroke-linejoin="round" stroke-miterlimit="10" d="
							M1.376,43.58l-0.283-0.284 M1.092,43.296H0.572 M0.572,43.296L0.289,43.58 M0.289,43.58v1.088 M0.572,44.952l-0.283-0.284
							 M0.572,44.952h0.521 M1.092,44.952l0.283-0.284 M1.376,44.668V44.1 M1.376,44.1H0.808 M1.944,44.952v-1.656 M1.944,43.296
							h0.805 M2.749,43.296l0.283,0.284 M3.032,43.58v0.521 M3.032,44.1l-0.283,0.284 M2.749,44.384H1.944 M3.6,44.952h0.521
							 M3.884,44.952v-1.656 M3.6,43.296h0.521 M5.492,43.296h-0.52 M4.972,43.296L4.688,43.58 M4.688,43.58v1.088 M4.688,44.668
							l0.284,0.284 M4.972,44.952h0.521 M5.776,44.668l-0.284,0.284 M5.776,44.668V43.58 M5.776,43.58l-0.284-0.284 M6.344,43.864
							l0.567-0.568 M6.913,43.296v1.656 M6.344,44.952h1.088 M9.088,43.296H8 M8,43.296V44.1 M8,44.1l0.567-0.236 M8.567,43.864
							h0.284 M8.851,43.864l0.237,0.237 M9.088,44.1v0.567 M9.088,44.668l-0.237,0.284 M8.851,44.952H8.284 M8.284,44.952L8,44.668"
							/>
						
							<path fill="none" stroke="#020202" stroke-width="0.4" stroke-linecap="round" stroke-linejoin="round" stroke-miterlimit="10" d="
							M5.776,50.78l-0.284-0.284 M5.492,50.496h-0.52 M4.972,50.496L4.688,50.78 M4.688,50.78v1.088 M4.688,51.868l0.284,0.284
							 M4.972,52.152h0.521 M5.492,52.152l0.284-0.284 M5.776,51.868v-0.521 M5.776,51.348H5.208 M6.344,52.152v-1.656
							 M6.344,50.496l1.088,1.656 M7.432,52.152v-1.656 M8,50.496v1.656 M8,52.152h0.805 M8.804,52.152l0.284-0.284 M9.088,51.868
							V50.78 M9.088,50.78l-0.284-0.284 M8.804,50.496H8"/>
					</g>
				</g>
			</g>
			<g id="unseen-1" transform="translate(0.737, 0)">
				<g>
					<rect x="0" y="19.843" fill="none" stroke="#FFFFFF" stroke-width="0.5" width="7.088" height="59.527"/>
					<rect x="79.2" y="19.843" fill="none" stroke="#FFFFFF" stroke-width="0.5" width="7.088" height="59.527"/>
				</g>
			</g>
			<g id="pin_pads" transform="translate(0.737, 0)">
				<g>
					<g transform="translate(0, 20.494)">
						<circle id="connector0pin" fill="none" stroke="#9A916C" stroke-width="1.5" cx="3.6" cy="3.6" r="2.05"/>
						<circle id="connector1pin" fill="none" stroke="#9A916C" stroke-width="1.5" cx="3.6" cy="10.8" r="2.05"/>
						<circle id="connector2pin" fill="none" stroke="#9A916C" stroke-width="1.5" cx="3.6" cy="18" r="2.05"/>
						<circle id="connector3pin" fill="none" stroke="#9A916C" stroke-width="1.5" cx="3.6" cy="25.2" r="2.05"/>
						<circle id="connector4pin" fill="none" stroke="#9A916C" stroke-width="1.5" cx="3.6" cy="32.4" r="2.05"/>
						<circle id="connector5pin" fill="none" stroke="#9A916C" stroke-width="1.5" cx="3.6" cy="39.6" r="2.05"/>
						<circle id="connector6pin" fill="none" stroke="#9A916C" stroke-width="1.5" cx="3.6" cy="46.8" r="2.05"/>
						<circle id="connector7pin" fill="none" stroke="#9A916C" stroke-width="1.5" cx="3.6" cy="54" r="2.05"/>
					</g>
					<g transform="translate(0, 20.494)">
						<circle id="connector15pin" fill="none" stroke="#9A916C" stroke-width="1.5" cx="82.8" cy="3.6" r="2.05"/>
						<circle id="connector14pin" fill="none" stroke="#9A916C" stroke-width="1.5" cx="82.8" cy="10.8" r="2.05"/>
						<circle id="connector13pin" fill="none" stroke="#9A916C" stroke-width="1.5" cx="82.8" cy="18" r="2.05"/>
						<circle id="connector12pin" fill="none" stroke="#9A916C" stroke-width="1.5" cx="82.8" cy="25.2" r="2.05"/>
						<circle id="connector11pin" fill="none" stroke="#9A916C" stroke-width="1.5" cx="82.8" cy="32.4" r="2.05"/>
						<circle id="connector10pin" fill="none" stroke="#9A916C" stroke-width="1.5" cx="82.8" cy="39.6" r="2.05"/>
						<circle id="connector9pin" fill="none" stroke="#9A916C" stroke-width="1.5" cx="82.8" cy="46.8" r="2.05"/>
						<circle id="connector8pin" fill="none" stroke="#9A916C" stroke-width="1.5" cx="82.8" cy="54" r="2.05"/>
					</g>
				</g>
			</g>
			<g id="pins" transform="translate(0.737, 0)">
				<g>
					<g transform="translate(0, 20.494)">
						<g>
							<rect x="2.1" y="2.1" fill="#9A916C" width="3" height="3"/>
							<rect x="3" y="3" fill="#8C8663" width="1.199" height="1.2"/>
							<polygon fill="#B8AF82" points="4.7,2.5 4.2,3 4.2,4.2 4.7,4.7 							"/>
							<polygon fill="#80795B" points="3,4.2 4.2,4.2 4.7,4.7 2.5,4.7 							"/>
							<polygon fill="#5E5B43" points="3,3 3,4.2 2.5,4.7 2.5,2.5 							"/>
							<polygon fill="#9A916C" points="4.7,2.5 4.2,3 3,3 2.5,2.5 							"/>
						</g>
						<g transform="translate(0,7.2)">
							<rect x="2.1" y="2.1" fill="#9A916C" width="3" height="3"/>
							<rect x="3" y="3" fill="#8C8663" width="1.199" height="1.2"/>
							<polygon fill="#B8AF82" points="4.7,2.5 4.2,3 4.2,4.2 4.7,4.7 							"/>
							<polygon fill="#80795B" points="3,4.2 4.2,4.2 4.7,4.7 2.5,4.7 							"/>
							<polygon fill="#5E5B43" points="3,3 3,4.2 2.5,4.7 2.5,2.5 							"/>
							<polygon fill="#9A916C" points="4.7,2.5 4.2,3 3,3 2.5,2.5 							"/>
						</g>
						<g transform="translate(0,14.4)">
							<rect x="2.1" y="2.1" fill="#9A916C" width="3" height="3"/>
							<rect x="3" y="3" fill="#8C8663" width="1.199" height="1.2"/>
							<polygon fill="#B8AF82" points="4.7,2.5 4.2,3 4.2,4.2 4.7,4.7 							"/>
							<polygon fill="#80795B" points="3,4.2 4.2,4.2 4.7,4.7 2.5,4.7 							"/>
							<polygon fill="#5E5B43" points="3,3 3,4.2 2.5,4.7 2.5,2.5 							"/>
							<polygon fill="#9A916C" points="4.7,2.5 4.2,3 3,3 2.5,2.5 							"/>
						</g>
						<g transform="translate(0,21.6)">
							<rect x="2.1" y="2.099" fill="#9A916C" width="3" height="3"/>
							<rect x="3" y="3" fill="#8C8663" width="1.199" height="1.199"/>
							<polygon fill="#B8AF82" points="4.7,2.5 4.2,3 4.2,4.2 4.7,4.7 							"/>
							<polygon fill="#80795B" points="3,4.2 4.2,4.2 4.7,4.7 2.5,4.7 							"/>
							<polygon fill="#5E5B43" points="3,3 3,4.2 2.5,4.7 2.5,2.5 							"/>
							<polygon fill="#9A916C" points="4.7,2.5 4.2,3 3,3 2.5,2.5 							"/>
						</g>
						<g transform="translate(0,28.8)">
							<rect x="2.1" y="2.101" fill="#9A916C" width="3" height="3"/>
							<rect x="3" y="3" fill="#8C8663" width="1.199" height="1.2"/>
							<polygon fill="#B8AF82" points="4.7,2.5 4.2,3 4.2,4.2 4.7,4.7 							"/>
							<polygon fill="#80795B" points="3,4.2 4.2,4.2 4.7,4.7 2.5,4.7 							"/>
							<polygon fill="#5E5B43" points="3,3 3,4.2 2.5,4.7 2.5,2.5 							"/>
							<polygon fill="#9A916C" points="4.7,2.5 4.2,3 3,3 2.5,2.5 							"/>
						</g>
						<g transform="translate(0,36.0)">
							<rect x="2.1" y="2.1" fill="#9A916C" width="3" height="3"/>
							<rect x="3" y="3" fill="#8C8663" width="1.199" height="1.2"/>
							<polygon fill="#B8AF82" points="4.7,2.5 4.2,3 4.2,4.2 4.7,4.7 							"/>
							<polygon fill="#80795B" points="3,4.2 4.2,4.2 4.7,4.7 2.5,4.7 							"/>
							<polygon fill="#5E5B43" points="3,3 3,4.2 2.5,4.7 2.5,2.5 							"/>
							<polygon fill="#9A916C" points="4.7,2.5 4.2,3 3,3 2.5,2.5 							"/>
						</g>
						<g transform="translate(0,43.2)">
							<rect x="2.1" y="2.1" fill="#9A916C" width="3" height="3"/>
							<rect x="3" y="3" fill="#8C8663" width="1.199" height="1.2"/>
							<polygon fill="#B8AF82" points="4.7,2.5 4.2,3 4.2,4.201 4.7,4.701 							"/>
							<polygon fill="#80795B" points="3,4.201 4.2,4.201 4.7,4.701 2.5,4.701 							"/>
							<polygon fill="#5E5B43" points="3,3 3,4.201 2.5,4.701 2.5,2.5 							"/>
							<polygon fill="#9A916C" points="4.7,2.5 4.2,3 3,3 2.5,2.5 							"/>
						</g>
						<g transform="translate(0,50.4)">
							<rect x="2.1" y="2.1" fill="#9A916C" width="3" height="3"/>
							<rect x="3" y="3.001" fill="#8C8663" width="1.199" height="1.199"/>
							<polygon fill="#B8AF82" points="4.7,2.501 4.2,3.001 4.2,4.2 4.7,4.7 							"/>
							<polygon fill="#80795B" points="3,4.2 4.2,4.2 4.7,4.7 2.5,4.7 							"/>
							<polygon fill="#5E5B43" points="3,3.001 3,4.2 2.5,4.7 2.5,2.501 							"/>
							<polygon fill="#9A916C" points="4.7,2.501 4.2,3.001 3,3.001 2.5,2.501 							"/>
						</g>
					</g>
					<g transform="translate(0, 20.494)">
						<g transform="translate(79.2, 0)">
							<rect x="2.1" y="2.1" fill="#9A916C" width="3" height="3"/>
							<rect x="3" y="3" fill="#8C8663" width="1.2" height="1.2"/>
							<polygon fill="#B8AF82" points="4.7,2.5 4.2,3 4.2,4.2 4.7,4.7 							"/>
							<polygon fill="#80795B" points="3,4.2 4.2,4.2 4.7,4.7 2.5,4.7 							"/>
							<polygon fill="#5E5B43" points="3,3 3,4.2 2.5,4.7 2.5,2.5 							"/>
							<polygon fill="#9A916C" points="4.7,2.5 4.2,3 3,3 2.5,2.5 							"/>
						</g>
						<g transform="translate(79.2, 7.2)">
							<rect x="2.1" y="2.1" fill="#9A916C" width="3" height="3"/>
							<rect x="3" y="3" fill="#8C8663" width="1.2" height="1.2"/>
							<polygon fill="#B8AF82" points="4.7,2.5 4.2,3 4.2,4.2 4.7,4.7 							"/>
							<polygon fill="#80795B" points="3,4.2 4.2,4.2 4.7,4.7 2.5,4.7 							"/>
							<polygon fill="#5E5B43" points="3,3 3,4.2 2.5,4.7 2.5,2.5 							"/>
							<polygon fill="#9A916C" points="4.7,2.5 4.2,3 3,3 2.5,2.5 							"/>
						</g>
						<g transform="translate(79.2, 14.4)">
							<rect x="2.1" y="2.1" fill="#9A916C" width="3" height="3"/>
							<rect x="3" y="3" fill="#8C8663" width="1.2" height="1.2"/>
							<polygon fill="#B8AF82" points="4.7,2.5 4.2,3 4.2,4.2 4.7,4.7 							"/>
							<polygon fill="#80795B" points="3,4.2 4.2,4.2 4.7,4.7 2.5,4.7 							"/>
							<polygon fill="#5E5B43" points="3,3 3,4.2 2.5,4.7 2.5,2.5 							"/>
							<polygon fill="#9A916C" points="4.7,2.5 4.2,3 3,3 2.5,2.5 							"/>
						</g>
						<g transform="translate(79.2, 21.6)">
							<rect x="2.1" y="2.099" fill="#9A916C" width="3" height="3"/>
							<rect x="3" y="3" fill="#8C8663" width="1.2" height="1.199"/>
							<polygon fill="#B8AF82" points="4.7,2.5 4.2,3 4.2,4.2 4.7,4.7 							"/>
							<polygon fill="#80795B" points="3,4.2 4.2,4.2 4.7,4.7 2.5,4.7 							"/>
							<polygon fill="#5E5B43" points="3,3 3,4.2 2.5,4.7 2.5,2.5 							"/>
							<polygon fill="#9A916C" points="4.7,2.5 4.2,3 3,3 2.5,2.5 							"/>
						</g>
						<g transform="translate(79.2, 28.8)">
							<rect x="2.1" y="2.101" fill="#9A916C" width="3" height="3"/>
							<rect x="3" y="3" fill="#8C8663" width="1.2" height="1.2"/>
							<polygon fill="#B8AF82" points="4.7,2.5 4.2,3 4.2,4.2 4.7,4.7 							"/>
							<polygon fill="#80795B" points="3,4.2 4.2,4.2 4.7,4.7 2.5,4.7 							"/>
							<polygon fill="#5E5B43" points="3,3 3,4.2 2.5,4.7 2.5,2.5 							"/>
							<polygon fill="#9A916C" points="4.7,2.5 4.2,3 3,3 2.5,2.5 							"/>
						</g>
						<g transform="translate(79.2, 36.0)">
							<rect x="2.1" y="2.1" fill="#9A916C" width="3" height="3"/>
							<rect x="3" y="3" fill="#8C8663" width="1.2" height="1.2"/>
							<polygon fill="#B8AF82" points="4.7,2.5 4.2,3 4.2,4.2 4.7,4.7 							"/>
							<polygon fill="#80795B" points="3,4.2 4.2,4.2 4.7,4.7 2.5,4.7 							"/>
							<polygon fill="#5E5B43" points="3,3 3,4.2 2.5,4.7 2.5,2.5 							"/>
							<polygon fill="#9A916C" points="4.7,2.5 4.2,3 3,3 2.5,2.5 							"/>
						</g>
						<g transform="translate(79.2, 43.2)">
							<rect x="2.1" y="2.1" fill="#9A916C" width="3" height="3"/>
							<rect x="3" y="3" fill="#8C8663" width="1.2" height="1.2"/>
							<polygon fill="#B8AF82" points="4.7,2.5 4.2,3 4.2,4.201 4.7,4.701 							"/>
							<polygon fill="#80795B" points="3,4.201 4.2,4.201 4.7,4.701 2.5,4.701 							"/>
							<polygon fill="#5E5B43" points="3,3 3,4.201 2.5,4.701 2.5,2.5 							"/>
							<polygon fill="#9A916C" points="4.7,2.5 4.2,3 3,3 2.5,2.5 							"/>
						</g>
						<g transform="translate(79.2, 50.4)">
							<rect x="2.1" y="2.1" fill="#9A916C" width="3" height="3"/>
							<rect x="3" y="3.001" fill="#8C8663" width="1.2" height="1.199"/>
							<polygon fill="#B8AF82" points="4.7,2.501 4.2,3.001 4.2,4.2 4.7,4.7 							"/>
							<polygon fill="#80795B" points="3,4.2 4.2,4.2 4.7,4.7 2.5,4.7 							"/>
							<polygon fill="#5E5B43" points="3,3.001 3,4.2 2.5,4.7 2.5,2.501 							"/>
							<polygon fill="#9A916C" points="4.7,2.501 4.2,3.001 3,3.001 2.5,2.501 							"/>
						</g>
					</g>
				</g>
			</g>
		</g>
	</g>
</g>
</svg>
