<?xml version="1.0" encoding="utf-8"?>
<!-- Generator: Adobe Illustrator 14.0.0, SVG Export Plug-In . SVG Version: 6.00 Build 43363)  -->
<!DOCTYPE svg PUBLIC "-//W3C//DTD SVG 1.1//EN" "http://www.w3.org/Graphics/SVG/1.1/DTD/svg11.dtd">
<svg version="1.1" id="Layer_1" xmlns="http://www.w3.org/2000/svg" xmlns:xlink="http://www.w3.org/1999/xlink" x="0px" y="0px"
	 width="87.874px" height="90.709px" viewBox="0 0 87.874 90.709" enable-background="new 0 0 87.874 90.709" xml:space="preserve">
<g id="silkscreen">
	<g id="esp-12f" transform="translate(0.737, 3)">
		<g>
			
				<rect x="2.523" y="0" fill="none" stroke="#000000" stroke-width="0.2" width="45.354" height="68.031"/>
		</g>
		<g transform="translate(2.523,0)">
			<g>
				<polygon points="43.301,15.289 42.081,15.289 42.081,3.269 36.961,3.269 36.961,10.969 28.617,10.969 28.617,3.269 
					23.357,3.269 23.357,10.969 15.077,10.969 15.077,3.269 9.961,3.269 9.961,15.286 8.741,15.286 8.741,3.269 3.697,3.269 
					3.697,15.289 2.049,15.289 2.049,2.049 16.297,2.049 16.297,9.749 22.137,9.749 22.137,2.049 29.837,2.049 29.837,9.749 
					35.741,9.749 35.741,2.049 43.301,2.049 				"/>
			</g>
			<g>
				
					<rect x="5.575" y="21.26" fill="none" stroke="#000000" stroke-width="0.2" width="34.2" height="43.2"/>
			</g>
			<text transform="matrix(1 0 0 1 14.2041 43.9998)" font-family="'DroidSans'" font-size="4">ESP-8266</text>
		</g>
	</g>
</g>
<g id="copper1">
	<g id="copper0">
		<g id="pins">
			<g transform="translate(0, 20.494)">
				<rect id="connector0pad" fill="#F7BD13" height="3.97" width="6.67" x="0" y="3.6"/>
				<rect id="connector1pad" fill="#F7BD13" height="3.97" width="6.67" x="0" y="9.27"/>
				<rect id="connector2pad" fill="#F7BD13" height="3.97" width="6.67" x="0" y="14.94"/>
				<rect id="connector3pad" fill="#F7BD13" height="3.97" width="6.67" x="0" y="20.61"/>
				<rect id="connector4pad" fill="#F7BD13" height="3.97" width="6.67" x="0" y="26.28"/>
				<rect id="connector5pad" fill="#F7BD13" height="3.97" width="6.67" x="0" y="31.95"/>
				<rect id="connector6pad" fill="#F7BD13" height="3.97" width="6.67" x="0" y="37.62"/>
				<rect id="connector7pad" fill="#F7BD13" height="3.97" width="6.67" x="0 " y="43.29"/>
			</g>
			<g transform="translate(0, 20.494)">
				<rect id="connector15pad" fill="#F7BD13" height="3.97" width="6.67" x="45.2" y="3.6"/>
				<rect id="connector14pad" fill="#F7BD13" height="3.97" width="6.67" x="45.2" y="9.27"/>
				<rect id="connector13pad" fill="#F7BD13" height="3.97" width="6.67" x="45.2" y="14.94"/>
				<rect id="connector12pad" fill="#F7BD13" height="3.97" width="6.67" x="45.2" y="20.61"/>
				<rect id="connector11pad" fill="#F7BD13" height="3.97" width="6.67" x="45.2" y="26.28"/>
				<rect id="connector10pad" fill="#F7BD13" height="3.97" width="6.67" x="45.2" y="31.95"/>
				<rect id="connector9pad" fill="#F7BD13" height="3.97" width="6.67" x="45.2" y="37.62"/>
				<rect id="connector8pad" fill="#F7BD13" height="3.97" width="6.67" x="45.2" y="43.29"/>
			</g>
		</g>
	</g>
</g>
</svg>
